<?xml version="1.0" encoding="UTF-8"?>
<!DOCTYPE svg  PUBLIC '-//W3C//DTD SVG 1.1//EN'  'http://www.w3.org/Graphics/SVG/1.1/DTD/svg11.dtd'>
<svg enable-background="new 0 0 2634.049 395.799" version="1.1" viewBox="0 0 2634.049 395.799" xml:space="preserve" xmlns="http://www.w3.org/2000/svg">
		<path d="m139.42 304.7c-34.133-9.235-68.267-19.795-102.4-31.795v-150c34.133 12 68.267 22.56 102.4 31.795v150zm-86.96-159.08v-10.132c0-0.801-0.643-1.67-1.434-1.939-1.412-0.48-2.824-0.963-4.236-1.448-0.791-0.271-1.434 0.158-1.434 0.958v10.132c0 0.8 0.643 1.674 1.434 1.945 1.412 0.485 2.824 0.968 4.236 1.448 0.79 0.269 1.434-0.164 1.434-0.964zm9.933 4.781c1.412 0.467 2.824 0.932 4.236 1.394 0.791 0.259 1.434-0.182 1.434-0.983v-10.132c0-0.8-0.643-1.662-1.434-1.92-1.412-0.462-2.824-0.927-4.236-1.394-0.791-0.262-1.434 0.176-1.434 0.976v10.132c0 0.8 0.643 1.665 1.434 1.927zm62.822 19.648c1.412 0.397 2.824 0.792 4.236 1.185 0.791 0.22 1.434-0.253 1.434-1.053v-10.132c0-0.801-0.643-1.63-1.434-1.85-1.412-0.393-2.824-0.788-4.236-1.185-0.791-0.222-1.434 0.247-1.434 1.047v10.132c0 0.801 0.643 1.634 1.434 1.856zm-9.915-4.418v-10.132c0-0.801-0.643-1.637-1.434-1.867-1.412-0.41-2.824-0.822-4.236-1.236-0.791-0.232-1.434 0.23-1.434 1.03v10.132c0 0.8 0.643 1.641 1.434 1.873 1.412 0.414 2.824 0.826 4.236 1.236 0.79 0.23 1.434-0.235 1.434-1.036zm-17.198-16.6c-1.412-0.427-2.824-0.856-4.236-1.288-0.791-0.242-1.434 0.212-1.434 1.012v10.132c0 0.8 0.643 1.649 1.434 1.891 1.412 0.432 2.824 0.861 4.236 1.288 0.791 0.239 1.434-0.218 1.434-1.019v-10.132c0-0.8-0.643-1.645-1.434-1.884zm-19.954 6.666c1.412 0.449 2.824 0.896 4.236 1.341 0.791 0.249 1.434-0.201 1.434-1.001v-10.132c0-0.8-0.643-1.653-1.434-1.902-1.412-0.445-2.824-0.891-4.236-1.341-0.791-0.251-1.434 0.194-1.434 0.994v10.132c0 0.801 0.643 1.658 1.434 1.909zm-33.952-3.841v97.114c0 0.972 0.781 2.033 1.742 2.364 28.091 9.67 56.182 18.372 84.273 26.169 0.96 0.267 1.742-0.309 1.742-1.281v-97.114c0-0.972-0.781-1.979-1.742-2.245-28.091-7.797-56.182-16.499-84.273-26.169-0.961-0.331-1.742 0.19-1.742 1.162zm8.222 118.42v-10.132c0-0.8-0.643-1.669-1.434-1.939-1.412-0.48-2.824-0.963-4.236-1.448-0.791-0.271-1.434 0.157-1.434 0.958v10.132c0 0.8 0.643 1.674 1.434 1.945 1.412 0.485 2.824 0.968 4.236 1.448 0.791 0.269 1.434-0.163 1.434-0.964zm8.499 2.854c0 0.801 0.643 1.665 1.434 1.927 1.412 0.467 2.824 0.932 4.236 1.394 0.791 0.259 1.434-0.182 1.434-0.983v-10.132c0-0.8-0.643-1.661-1.434-1.92-1.412-0.462-2.824-0.927-4.236-1.394-0.791-0.262-1.434 0.176-1.434 0.976v10.132zm17.19 7.225c1.412 0.449 2.824 0.896 4.236 1.341 0.791 0.249 1.434-0.2 1.434-1.001v-10.132c0-0.8-0.643-1.654-1.434-1.902-1.412-0.445-2.824-0.892-4.236-1.341-0.791-0.251-1.434 0.194-1.434 0.995v10.132c0 0.8 0.643 1.656 1.434 1.908zm51.303 15.539c0.791 0.22 1.434-0.253 1.434-1.053v-10.132c0-0.8-0.643-1.63-1.434-1.85-1.412-0.393-2.824-0.788-4.236-1.185-0.791-0.223-1.434 0.247-1.434 1.047v10.132c0 0.8 0.643 1.633 1.434 1.856 1.412 0.397 2.824 0.792 4.236 1.185zm-14.152-5.604v-10.132c0-0.801-0.643-1.638-1.434-1.867-1.412-0.41-2.824-0.822-4.236-1.236-0.791-0.232-1.434 0.23-1.434 1.03v10.132c0 0.8 0.643 1.642 1.434 1.873 1.412 0.414 2.824 0.827 4.236 1.236 0.791 0.229 1.434-0.236 1.434-1.036zm-15.763-14.716c0-0.801-0.643-1.645-1.434-1.884-1.412-0.427-2.824-0.856-4.236-1.288-0.791-0.242-1.434 0.212-1.434 1.012v10.132c0 0.8 0.643 1.649 1.434 1.891 1.412 0.432 2.824 0.861 4.236 1.288 0.791 0.239 1.434-0.218 1.434-1.019v-10.132z"/>
		<path d="m241.82 328.54c-34.133-6.701-68.267-14.611-102.4-23.846v-150c34.133 9.235 68.267 17.146 102.4 23.846v150zm-86.96-152.38v-10.132c0-0.8-0.643-1.618-1.434-1.824-1.412-0.367-2.824-0.737-4.236-1.108-0.791-0.208-1.434 0.273-1.434 1.073v10.132c0 0.8 0.643 1.621 1.434 1.83 1.412 0.372 2.824 0.741 4.236 1.108 0.79 0.206 1.434-0.279 1.434-1.079zm9.933 3.99c1.412 0.355 2.824 0.708 4.236 1.059 0.791 0.196 1.434-0.295 1.434-1.096v-10.132c0-0.8-0.643-1.61-1.434-1.807-1.412-0.351-2.824-0.704-4.236-1.059-0.791-0.199-1.434 0.29-1.434 1.09v10.132c0 0.8 0.643 1.614 1.434 1.813zm62.822 14.795c1.412 0.291 2.824 0.58 4.236 0.867 0.791 0.161 1.434-0.361 1.434-1.161v-10.132c0-0.8-0.643-1.582-1.434-1.742-1.412-0.287-2.824-0.576-4.236-0.867-0.791-0.163-1.434 0.355-1.434 1.155v10.132c0 0.801 0.643 1.586 1.434 1.748zm-9.915-3.669v-10.132c0-0.8-0.643-1.589-1.434-1.758-1.412-0.302-2.824-0.607-4.236-0.914-0.791-0.172-1.434 0.339-1.434 1.139v10.132c0 0.801 0.643 1.592 1.434 1.764 1.412 0.307 2.824 0.611 4.236 0.914 0.79 0.169 1.434-0.344 1.434-1.145zm-17.198-15.286c-1.412-0.318-2.824-0.639-4.236-0.961-0.791-0.181-1.434 0.323-1.434 1.123v10.132c0 0.801 0.643 1.6 1.434 1.78 1.412 0.323 2.824 0.643 4.236 0.961 0.791 0.178 1.434-0.328 1.434-1.129v-10.132c0-0.801-0.643-1.596-1.434-1.774zm-19.954 8.215c1.412 0.339 2.824 0.675 4.236 1.01 0.791 0.187 1.434-0.312 1.434-1.113v-10.132c0-0.801-0.643-1.603-1.434-1.79-1.412-0.334-2.824-0.671-4.236-1.01-0.791-0.19-1.434 0.306-1.434 1.107v10.132c0 0.8 0.644 1.607 1.434 1.796zm-33.952-1.145v97.114c0 0.972 0.781 1.97 1.742 2.224 28.091 7.411 56.182 13.932 84.273 19.626 0.96 0.194 1.742-0.439 1.742-1.411v-97.114c0-0.972-0.781-1.92-1.742-2.115-28.091-5.694-56.182-12.215-84.273-19.626-0.961-0.254-1.742 0.33-1.742 1.302zm8.222 117.76v-10.132c0-0.8-0.643-1.619-1.434-1.824-1.412-0.367-2.824-0.737-4.236-1.108-0.791-0.208-1.434 0.274-1.434 1.074v10.132c0 0.8 0.643 1.622 1.434 1.83 1.412 0.372 2.824 0.741 4.236 1.108 0.791 0.205 1.434-0.28 1.434-1.08zm8.499 2.177c0 0.8 0.643 1.614 1.434 1.813 1.412 0.355 2.824 0.708 4.236 1.059 0.791 0.197 1.434-0.296 1.434-1.096v-10.132c0-0.8-0.643-1.611-1.434-1.807-1.412-0.351-2.824-0.704-4.236-1.059-0.791-0.199-1.434 0.29-1.434 1.09v10.132zm17.19 5.868c1.412 0.339 2.824 0.676 4.236 1.01 0.791 0.187 1.434-0.312 1.434-1.113v-10.132c0-0.801-0.643-1.603-1.434-1.791-1.412-0.334-2.824-0.671-4.236-1.01-0.791-0.189-1.434 0.306-1.434 1.107v10.132c0 0.802 0.643 1.608 1.434 1.797zm51.303 11.61c0.791 0.161 1.434-0.36 1.434-1.161v-10.132c0-0.801-0.643-1.581-1.434-1.742-1.412-0.287-2.824-0.576-4.236-0.867-0.791-0.163-1.434 0.355-1.434 1.155v10.132c0 0.801 0.643 1.585 1.434 1.748 1.412 0.29 2.824 0.579 4.236 0.867zm-14.152-4.537v-10.132c0-0.801-0.643-1.589-1.434-1.758-1.412-0.303-2.824-0.607-4.236-0.914-0.791-0.172-1.434 0.339-1.434 1.139v10.132c0 0.801 0.643 1.591 1.434 1.764 1.412 0.307 2.824 0.611 4.236 0.914 0.791 0.169 1.434-0.344 1.434-1.145zm-15.763-13.513c0-0.801-0.643-1.596-1.434-1.774-1.412-0.318-2.824-0.639-4.236-0.962-0.791-0.181-1.434 0.323-1.434 1.123v10.132c0 0.8 0.643 1.6 1.434 1.78 1.412 0.323 2.824 0.643 4.236 0.962 0.791 0.178 1.434-0.329 1.434-1.129v-10.132z"/>
		<path d="m344.22 345.13c-34.133-4.397-68.267-9.888-102.4-16.589v-150c34.133 6.701 68.267 12.192 102.4 16.589v150zm-86.96-146.26v-10.132c0-0.801-0.643-1.571-1.434-1.719-1.412-0.263-2.824-0.529-4.236-0.797-0.791-0.15-1.434 0.378-1.434 1.179v10.132c0 0.801 0.643 1.574 1.434 1.724 1.412 0.268 2.824 0.533 4.236 0.797 0.79 0.148 1.434-0.383 1.434-1.184zm9.933 3.265c1.412 0.253 2.824 0.503 4.236 0.752 0.791 0.139 1.434-0.399 1.434-1.2v-10.132c0-0.801-0.643-1.564-1.434-1.703-1.412-0.249-2.824-0.499-4.236-0.752-0.791-0.142-1.434 0.393-1.434 1.194v10.132c0 0.801 0.643 1.568 1.434 1.709zm62.822 10.366c1.412 0.195 2.824 0.387 4.236 0.578 0.791 0.107 1.434-0.458 1.434-1.259v-10.132c0-0.8-0.643-1.538-1.434-1.645-1.412-0.191-2.824-0.383-4.236-0.578-0.791-0.109-1.434 0.453-1.434 1.253v10.132c0 0.802 0.644 1.543 1.434 1.651zm-9.915-2.987v-10.132c0-0.8-0.643-1.544-1.434-1.659-1.412-0.205-2.824-0.411-4.236-0.62-0.791-0.117-1.434 0.439-1.434 1.239v10.132c0 0.8 0.643 1.548 1.434 1.664 1.412 0.209 2.824 0.415 4.236 0.62 0.79 0.115 1.434-0.444 1.434-1.244zm-17.198-14.088c-1.412-0.219-2.824-0.44-4.236-0.664-0.791-0.124-1.434 0.424-1.434 1.224v10.132c0 0.8 0.643 1.554 1.434 1.679 1.412 0.223 2.824 0.444 4.236 0.664 0.791 0.122 1.434-0.429 1.434-1.23v-10.132c0-0.8-0.643-1.55-1.434-1.673zm-19.954 9.629c1.412 0.238 2.824 0.474 4.236 0.707 0.791 0.131 1.434-0.414 1.434-1.215v-10.132c0-0.801-0.643-1.557-1.434-1.688-1.412-0.234-2.824-0.47-4.236-0.707-0.791-0.133-1.434 0.409-1.434 1.209v10.132c0 0.801 0.644 1.561 1.434 1.694zm-33.952 1.322v97.114c0 0.972 0.781 1.913 1.742 2.095 28.091 5.342 56.182 9.871 84.273 13.653 0.96 0.13 1.742-0.557 1.742-1.53v-97.114c0-0.972-0.781-1.868-1.742-1.997-28.091-3.781-56.182-8.311-84.273-13.653-0.961-0.182-1.742 0.46-1.742 1.432zm8.222 117.16v-10.132c0-0.801-0.643-1.572-1.434-1.719-1.412-0.264-2.824-0.529-4.236-0.797-0.791-0.149-1.434 0.378-1.434 1.179v10.132c0 0.8 0.643 1.575 1.434 1.724 1.412 0.268 2.824 0.533 4.236 0.797 0.791 0.149 1.434-0.383 1.434-1.184zm8.499 1.557c0 0.8 0.643 1.567 1.434 1.709 1.412 0.253 2.824 0.503 4.236 0.752 0.791 0.139 1.434-0.399 1.434-1.2v-10.132c0-0.801-0.643-1.564-1.434-1.703-1.412-0.249-2.824-0.5-4.236-0.752-0.791-0.142-1.434 0.394-1.434 1.194v10.132zm17.19 4.63c1.412 0.238 2.824 0.474 4.236 0.708 0.791 0.131 1.434-0.414 1.434-1.215v-10.132c0-0.8-0.643-1.557-1.434-1.688-1.412-0.234-2.824-0.47-4.236-0.708-0.791-0.133-1.434 0.409-1.434 1.21v10.132c0 0.8 0.643 1.56 1.434 1.693zm51.303 8.025c0.791 0.107 1.434-0.458 1.434-1.258v-10.132c0-0.801-0.643-1.537-1.434-1.645-1.412-0.191-2.824-0.383-4.236-0.578-0.791-0.109-1.434 0.453-1.434 1.253v10.132c0 0.801 0.643 1.541 1.434 1.65 1.412 0.195 2.824 0.388 4.236 0.578zm-14.152-3.565v-10.132c0-0.8-0.644-1.545-1.434-1.659-1.412-0.205-2.824-0.411-4.236-0.62-0.791-0.117-1.434 0.439-1.434 1.239v10.132c0 0.801 0.643 1.547 1.434 1.664 1.412 0.209 2.824 0.415 4.236 0.62 0.791 0.115 1.434-0.444 1.434-1.244zm-15.763-12.416c0-0.8-0.643-1.551-1.434-1.673-1.412-0.219-2.824-0.44-4.236-0.664-0.791-0.125-1.434 0.424-1.434 1.224v10.132c0 0.801 0.643 1.554 1.434 1.679 1.412 0.223 2.824 0.444 4.236 0.664 0.791 0.123 1.434-0.429 1.434-1.23v-10.132z"/>
		<path d="m446.62 355.15c-34.133-2.323-68.267-5.626-102.4-10.022v-150c34.133 4.397 68.267 7.699 102.4 10.022v150zm-86.96-140.73v-10.132c0-0.801-0.643-1.528-1.434-1.623-1.412-0.169-2.824-0.341-4.236-0.514-0.791-0.098-1.434 0.475-1.434 1.275v10.132c0 0.801 0.643 1.531 1.434 1.628 1.412 0.173 2.824 0.345 4.236 0.514 0.79 0.095 1.434-0.48 1.434-1.28zm9.933 2.609c1.412 0.16 2.824 0.318 4.236 0.474 0.791 0.087 1.434-0.493 1.434-1.294v-10.132c0-0.8-0.643-1.522-1.434-1.609-1.412-0.156-2.824-0.314-4.236-0.474-0.791-0.09-1.434 0.488-1.434 1.289v10.132c0 0.8 0.643 1.524 1.434 1.614zm62.822 6.36c1.412 0.107 2.824 0.213 4.236 0.317 0.791 0.058 1.434-0.546 1.434-1.347v-10.132c0-0.8-0.643-1.499-1.434-1.557-1.412-0.104-2.824-0.21-4.236-0.317-0.791-0.06-1.434 0.542-1.434 1.342v10.132c0 0.801 0.644 1.502 1.434 1.562zm-9.915-2.372v-10.132c0-0.801-0.643-1.504-1.434-1.569-1.412-0.117-2.824-0.235-4.236-0.355-0.791-0.067-1.434 0.529-1.434 1.329v10.132c0 0.8 0.643 1.508 1.434 1.574 1.412 0.12 2.824 0.238 4.236 0.355 0.79 0.065 1.434-0.534 1.434-1.334zm-17.198-13.007c-1.412-0.13-2.824-0.261-4.236-0.394-0.791-0.074-1.434 0.516-1.434 1.316v10.132c0 0.8 0.643 1.513 1.434 1.587 1.412 0.133 2.824 0.264 4.236 0.394 0.791 0.073 1.434-0.521 1.434-1.321v-10.132c0-0.8-0.643-1.509-1.434-1.582zm-19.954 10.91c1.412 0.146 2.824 0.291 4.236 0.433 0.791 0.08 1.434-0.506 1.434-1.307v-10.132c0-0.8-0.643-1.515-1.434-1.596-1.412-0.143-2.824-0.287-4.236-0.433-0.791-0.082-1.434 0.501-1.434 1.302v10.132c0 0.8 0.643 1.518 1.434 1.601zm-33.952 3.559v97.114c0 0.972 0.781 1.861 1.742 1.979 28.091 3.462 56.182 6.19 84.273 8.248 0.961 0.07 1.742-0.664 1.742-1.636v-97.114c0-0.972-0.781-1.82-1.742-1.89-28.091-2.058-56.182-4.786-84.273-8.248-0.961-0.119-1.742 0.575-1.742 1.547zm8.222 116.61v-10.132c0-0.801-0.643-1.528-1.434-1.623-1.412-0.17-2.824-0.341-4.236-0.514-0.791-0.097-1.434 0.474-1.434 1.275v10.132c0 0.801 0.644 1.531 1.434 1.628 1.412 0.173 2.824 0.345 4.236 0.514 0.791 0.095 1.434-0.479 1.434-1.28zm8.499 0.994c0 0.801 0.643 1.525 1.434 1.614 1.412 0.16 2.824 0.318 4.236 0.474 0.79 0.088 1.434-0.494 1.434-1.294v-10.132c0-0.801-0.643-1.522-1.434-1.61-1.412-0.156-2.824-0.314-4.236-0.474-0.791-0.09-1.434 0.488-1.434 1.289v10.133zm17.19 3.506c1.412 0.146 2.824 0.291 4.236 0.434 0.791 0.08 1.434-0.507 1.434-1.307v-10.132c0-0.801-0.643-1.516-1.434-1.596-1.412-0.143-2.824-0.287-4.236-0.434-0.791-0.083-1.434 0.502-1.434 1.303v10.132c0 0.799 0.643 1.518 1.434 1.6zm51.303 4.788c0.791 0.058 1.434-0.547 1.434-1.346v-10.132c0-0.8-0.643-1.498-1.434-1.557-1.412-0.104-2.824-0.21-4.236-0.317-0.791-0.06-1.434 0.541-1.434 1.342v10.132c0 0.8 0.643 1.501 1.434 1.561 1.412 0.107 2.824 0.213 4.236 0.317zm-14.152-2.69v-10.132c0-0.8-0.643-1.505-1.434-1.57-1.412-0.117-2.824-0.235-4.236-0.355-0.791-0.067-1.434 0.529-1.434 1.329v10.132c0 0.801 0.643 1.506 1.434 1.574 1.412 0.12 2.824 0.238 4.236 0.355 0.791 0.066 1.434-0.532 1.434-1.333zm-15.763-11.424c0-0.8-0.644-1.51-1.434-1.583-1.412-0.13-2.824-0.261-4.236-0.394-0.791-0.075-1.434 0.515-1.434 1.316v10.132c0 0.8 0.643 1.513 1.434 1.587 1.412 0.133 2.824 0.264 4.236 0.394 0.791 0.072 1.434-0.52 1.434-1.321v-10.131z"/>
		<path d="m549.02 359.3c-34.133-0.48-68.267-1.824-102.4-4.147v-150c34.133 2.323 68.267 3.667 102.4 4.147v150zm-86.96-135.78v-10.132c0-0.801-0.643-1.49-1.434-1.537-1.412-0.085-2.824-0.172-4.236-0.26-0.791-0.049-1.434 0.561-1.434 1.361v10.132c0 0.8 0.644 1.492 1.434 1.542 1.412 0.089 2.824 0.175 4.236 0.26 0.79 0.048 1.434-0.565 1.434-1.366zm9.933 2.019c1.412 0.076 2.824 0.151 4.236 0.224 0.791 0.041 1.434-0.578 1.434-1.378v-10.132c0-0.801-0.643-1.484-1.434-1.525-1.412-0.073-2.824-0.148-4.236-0.224-0.791-0.043-1.434 0.574-1.434 1.374v10.132c0 0.799 0.644 1.486 1.434 1.529zm62.822 2.779c1.412 0.03 2.824 0.058 4.236 0.085 0.791 0.015 1.434-0.625 1.434-1.425v-10.132c0-0.801-0.643-1.463-1.434-1.478-1.412-0.027-2.824-0.055-4.236-0.085-0.791-0.017-1.434 0.62-1.434 1.421v10.132c0 0.8 0.643 1.466 1.434 1.482zm-9.915-1.824v-10.132c0-0.801-0.643-1.468-1.434-1.49-1.412-0.038-2.824-0.077-4.236-0.118-0.791-0.023-1.434 0.609-1.434 1.409v10.132c0 0.801 0.643 1.471 1.434 1.494 1.412 0.041 2.824 0.081 4.236 0.118 0.79 0.022 1.434-0.613 1.434-1.413zm-17.198-12.041c-1.412-0.049-2.824-0.101-4.236-0.153-0.791-0.03-1.434 0.597-1.434 1.398v10.132c0 0.8 0.643 1.476 1.434 1.506 1.412 0.053 2.824 0.104 4.236 0.153 0.791 0.027 1.434-0.602 1.434-1.402v-10.132c0-0.801-0.643-1.475-1.434-1.502zm-19.954 12.054c1.412 0.064 2.824 0.127 4.236 0.188 0.791 0.034 1.434-0.589 1.434-1.39v-10.132c0-0.8-0.643-1.479-1.434-1.513-1.412-0.061-2.824-0.124-4.236-0.188-0.791-0.036-1.434 0.585-1.434 1.386v10.132c0 0.8 0.643 1.481 1.434 1.517zm-33.952 5.568v97.114c0 0.972 0.782 1.813 1.742 1.874 28.091 1.772 56.182 2.888 84.273 3.412 0.96 0.018 1.742-0.76 1.742-1.731v-97.114c0-0.972-0.781-1.777-1.742-1.795-28.091-0.524-56.182-1.64-84.273-3.412-0.961-0.061-1.742 0.68-1.742 1.652zm8.222 116.12v-10.132c0-0.801-0.643-1.491-1.434-1.538-1.412-0.085-2.824-0.172-4.236-0.26-0.791-0.05-1.434 0.561-1.434 1.361v10.132c0 0.8 0.643 1.493 1.434 1.542 1.412 0.089 2.824 0.175 4.236 0.26 0.791 0.049 1.434-0.564 1.434-1.365zm8.499 0.489c0 0.801 0.643 1.487 1.434 1.53 1.412 0.076 2.824 0.151 4.236 0.224 0.79 0.041 1.434-0.577 1.434-1.378v-10.132c0-0.801-0.643-1.484-1.434-1.525-1.412-0.073-2.824-0.148-4.236-0.224-0.791-0.043-1.434 0.573-1.434 1.374v10.131zm17.19 2.499c1.412 0.064 2.824 0.127 4.236 0.188 0.791 0.034 1.434-0.59 1.434-1.39v-10.132c0-0.8-0.643-1.479-1.434-1.513-1.412-0.061-2.824-0.124-4.236-0.188-0.791-0.036-1.434 0.585-1.434 1.386v10.132c0 0.799 0.643 1.481 1.434 1.517zm51.303 1.897c0.791 0.015 1.434-0.624 1.434-1.425v-10.132c0-0.8-0.643-1.464-1.434-1.478-1.412-0.027-2.824-0.055-4.236-0.085-0.791-0.017-1.434 0.62-1.434 1.421v10.132c0 0.8 0.643 1.466 1.434 1.483 1.411 0.029 2.824 0.057 4.236 0.084zm-14.152-1.91v-10.132c0-0.801-0.643-1.469-1.434-1.49-1.412-0.038-2.824-0.078-4.236-0.119-0.79-0.023-1.434 0.609-1.434 1.409v10.132c0 0.8 0.643 1.47 1.434 1.494 1.412 0.041 2.824 0.081 4.236 0.119 0.791 0.022 1.434-0.613 1.434-1.413zm-15.763-10.54c0-0.801-0.643-1.474-1.434-1.501-1.412-0.05-2.824-0.1-4.236-0.153-0.791-0.03-1.434 0.597-1.434 1.398v10.132c0 0.801 0.643 1.477 1.434 1.506 1.412 0.053 2.824 0.104 4.236 0.153 0.791 0.028 1.434-0.601 1.434-1.402v-10.133z"/>
		<path d="m651.42 358.26c-34.133 1.133-68.267 1.517-102.4 1.037v-150c34.133 0.48 68.267 0.096 102.4-1.037v150zm-86.96-131.42v-10.132c0-0.801-0.644-1.456-1.434-1.461-1.412-0.01-2.824-0.022-4.236-0.035-0.79-7e-3 -1.434 0.637-1.434 1.438v10.132c0 0.8 0.643 1.458 1.434 1.465 1.412 0.013 2.824 0.025 4.236 0.035 0.79 5e-3 1.433-0.642 1.434-1.442zm9.933 1.495c1.412 2e-3 2.824 3e-3 4.236 3e-3 0.791 0 1.434-0.652 1.434-1.452v-10.132c0-0.801-0.643-1.451-1.434-1.451-1.412 0-2.824-1e-3 -4.236-3e-3 -0.791-1e-3 -1.434 0.648-1.434 1.449v10.132c0 0.8 0.644 1.452 1.434 1.454zm62.822-0.378c1.412-0.038 2.824-0.078 4.236-0.118 0.79-0.022 1.434-0.693 1.434-1.493v-10.132c0-0.801-0.643-1.432-1.434-1.41-1.412 0.041-2.824 0.08-4.236 0.118-0.79 0.022-1.434 0.69-1.434 1.49v10.132c0 0.8 0.644 1.435 1.434 1.413zm-9.915-1.343v-10.132c0-0.8-0.643-1.436-1.434-1.419-1.412 0.031-2.824 0.061-4.236 0.089-0.791 0.016-1.434 0.68-1.434 1.48v10.132c0 0.801 0.644 1.439 1.434 1.423 1.412-0.028 2.824-0.058 4.236-0.089 0.79-0.018 1.434-0.683 1.434-1.484zm-17.198-11.191c-1.412 0.021-2.824 0.041-4.236 0.059-0.791 0.01-1.434 0.669-1.434 1.47v10.132c0 0.801 0.643 1.444 1.434 1.433 1.412-0.018 2.824-0.038 4.236-0.059 0.791-0.011 1.434-0.673 1.434-1.474v-10.132c0-0.8-0.643-1.441-1.434-1.429zm-19.954 13.064c1.412-8e-3 2.824-0.018 4.236-0.028 0.79-6e-3 1.434-0.662 1.434-1.463v-10.132c0-0.801-0.643-1.446-1.434-1.44-1.412 0.011-2.824 0.021-4.236 0.028-0.791 5e-3 -1.434 0.659-1.434 1.459v10.132c1e-3 0.801 0.643 1.449 1.434 1.444zm-33.952 7.348v97.114c0 0.972 0.781 1.771 1.742 1.781 28.091 0.272 56.182-0.035 84.273-0.855 0.961-0.028 1.742-0.843 1.742-1.815v-97.114c0-0.972-0.782-1.74-1.742-1.712-28.091 0.821-56.182 1.127-84.273 0.855-0.961-9e-3 -1.742 0.774-1.742 1.746zm8.222 115.68v-10.132c0-0.801-0.644-1.456-1.434-1.462-1.412-0.01-2.824-0.022-4.236-0.035-0.791-7e-3 -1.434 0.637-1.434 1.438v10.132c0 0.801 0.643 1.458 1.434 1.465 1.412 0.013 2.824 0.025 4.236 0.035 0.791 6e-3 1.434-0.64 1.434-1.441zm8.499 0.041c0 0.8 0.643 1.454 1.434 1.455 1.412 3e-3 2.824 4e-3 4.236 3e-3 0.791 0 1.434-0.652 1.434-1.453v-10.132c0-0.8-0.643-1.451-1.434-1.451-1.412 0-2.824-1e-3 -4.236-3e-3 -0.791-1e-3 -1.434 0.648-1.434 1.449v10.132zm17.19 1.607c1.412-8e-3 2.824-0.017 4.236-0.028 0.791-6e-3 1.434-0.662 1.434-1.463v-10.132c0-0.801-0.643-1.446-1.434-1.44-1.412 0.011-2.824 0.02-4.236 0.028-0.791 5e-3 -1.434 0.659-1.434 1.459v10.132c0 0.8 0.643 1.448 1.434 1.444zm51.303-0.647c0.791-0.023 1.434-0.693 1.434-1.493v-10.132c0-0.8-0.643-1.433-1.434-1.41-1.412 0.041-2.824 0.08-4.236 0.118-0.791 0.021-1.434 0.69-1.434 1.49v10.132c0 0.8 0.643 1.435 1.434 1.413 1.411-0.038 2.824-0.078 4.236-0.118zm-14.152-1.226v-10.132c0-0.801-0.643-1.437-1.434-1.42-1.412 0.031-2.824 0.061-4.236 0.089-0.791 0.016-1.434 0.68-1.434 1.48v10.132c0 0.8 0.643 1.44 1.434 1.423 1.412-0.028 2.824-0.058 4.236-0.089 0.791-0.017 1.434-0.682 1.434-1.483zm-15.763-9.762c0-0.801-0.643-1.442-1.434-1.43-1.412 0.021-2.824 0.041-4.236 0.059-0.791 0.01-1.434 0.669-1.434 1.47v10.132c0 0.801 0.643 1.444 1.434 1.433 1.412-0.018 2.824-0.038 4.236-0.059 0.791-0.011 1.434-0.673 1.434-1.473v-10.132z"/>
		<path d="m753.82 352.73c-34.133 2.515-68.267 4.397-102.4 5.53v-150c34.133-1.133 68.267-3.014 102.4-5.53v150zm-86.96-127.65v-10.132c0-0.8-0.644-1.426-1.434-1.395-1.412 0.055-2.824 0.109-4.236 0.162-0.79 0.029-1.434 0.704-1.434 1.505v10.132c0 0.8 0.644 1.428 1.434 1.398 1.412-0.053 2.824-0.107 4.236-0.162 0.79-0.03 1.433-0.707 1.434-1.508zm9.933 1.04c1.412-0.062 2.824-0.125 4.236-0.189 0.791-0.036 1.434-0.717 1.434-1.517v-10.132c0-0.8-0.644-1.422-1.434-1.386-1.412 0.064-2.824 0.127-4.236 0.189-0.791 0.035-1.434 0.714-1.434 1.514v10.132c0 0.8 0.643 1.423 1.434 1.389zm62.822-3.111c1.412-0.097 2.824-0.194 4.236-0.293 0.791-0.055 1.434-0.751 1.434-1.552v-10.132c0-0.8-0.643-1.406-1.434-1.351-1.412 0.099-2.824 0.197-4.236 0.293-0.791 0.054-1.434 0.749-1.434 1.549v10.132c0 0.801 0.644 1.408 1.434 1.354zm-9.915-0.93v-10.132c0-0.8-0.643-1.41-1.434-1.359-1.412 0.091-2.824 0.18-4.236 0.269-0.79 0.049-1.434 0.741-1.434 1.541v10.132c0 0.8 0.643 1.412 1.434 1.362 1.412-0.088 2.824-0.178 4.236-0.269 0.791-0.05 1.434-0.743 1.434-1.544zm-17.198-10.457c-1.412 0.082-2.824 0.163-4.236 0.243-0.791 0.045-1.434 0.732-1.434 1.532v10.132c0 0.801 0.643 1.416 1.434 1.371 1.412-0.08 2.824-0.161 4.236-0.243 0.791-0.046 1.434-0.735 1.434-1.535v-10.132c0-0.801-0.643-1.414-1.434-1.368zm-19.954 13.94c1.412-0.071 2.824-0.143 4.236-0.216 0.791-0.042 1.434-0.726 1.434-1.526v-10.132c0-0.8-0.643-1.418-1.434-1.377-1.412 0.073-2.824 0.146-4.236 0.216-0.791 0.04-1.434 0.723-1.434 1.523v10.132c0 0.801 0.644 1.419 1.434 1.38zm-33.952 8.898v97.114c0 0.973 0.781 1.735 1.742 1.699 28.091-1.039 56.182-2.578 84.273-4.554 0.961-0.067 1.742-0.914 1.742-1.886v-97.114c0-0.972-0.781-1.708-1.742-1.64-28.091 1.976-56.182 3.515-84.273 4.554-0.961 0.035-1.742 0.854-1.742 1.827zm8.222 115.3v-10.132c0-0.8-0.643-1.426-1.434-1.395-1.412 0.055-2.824 0.109-4.236 0.162-0.791 0.029-1.434 0.705-1.434 1.505v10.132c0 0.801 0.643 1.428 1.434 1.398 1.412-0.053 2.824-0.107 4.236-0.162 0.791-0.031 1.434-0.707 1.434-1.508zm8.499-0.349c0 0.801 0.643 1.424 1.434 1.389 1.412-0.062 2.824-0.125 4.236-0.189 0.791-0.036 1.434-0.717 1.434-1.517v-10.132c0-0.801-0.644-1.422-1.434-1.386-1.412 0.064-2.824 0.128-4.236 0.189-0.791 0.035-1.434 0.713-1.434 1.514v10.132zm17.19 0.831c1.412-0.071 2.824-0.143 4.236-0.216 0.791-0.041 1.434-0.726 1.434-1.526v-10.132c0-0.801-0.643-1.417-1.434-1.377-1.412 0.073-2.824 0.145-4.236 0.216-0.791 0.04-1.435 0.723-1.434 1.523v10.132c0 0.801 0.642 1.421 1.434 1.38zm51.303-2.845c0.791-0.055 1.434-0.752 1.434-1.552v-10.132c0-0.8-0.643-1.406-1.434-1.351-1.412 0.099-2.824 0.197-4.236 0.293-0.791 0.054-1.434 0.749-1.434 1.549v10.132c1e-3 0.8 0.643 1.408 1.434 1.354 1.412-0.097 2.824-0.194 4.236-0.293zm-14.152-0.637v-10.132c0-0.801-0.643-1.41-1.434-1.359-1.412 0.091-2.824 0.18-4.236 0.269-0.791 0.05-1.434 0.741-1.434 1.541v10.132c0 0.8 0.643 1.412 1.434 1.362 1.412-0.088 2.824-0.178 4.236-0.269 0.79-0.051 1.434-0.743 1.434-1.544zm-15.763-9.09c1e-3 -0.8-0.643-1.414-1.434-1.368-1.412 0.082-2.824 0.163-4.236 0.243-0.791 0.045-1.434 0.732-1.434 1.532v10.132c0 0.801 0.642 1.416 1.434 1.371 1.412-0.08 2.824-0.161 4.236-0.243 0.791-0.046 1.434-0.735 1.434-1.535v-10.132z"/>
		<path d="m856.22 343.4c-34.133 3.667-68.267 6.816-102.4 9.331v-150c34.133-2.515 68.267-5.664 102.4-9.331v150zm-86.96-124.47v-10.132c0-0.801-0.643-1.401-1.434-1.338-1.412 0.111-2.824 0.221-4.236 0.33-0.791 0.061-1.435 0.761-1.434 1.562v10.132c0 0.8 0.643 1.403 1.434 1.341 1.412-0.109 2.824-0.219 4.236-0.33 0.79-0.063 1.434-0.764 1.434-1.565zm9.933 0.651c1.412-0.117 2.824-0.234 4.236-0.353 0.791-0.067 1.434-0.772 1.434-1.573v-10.132c0-0.801-0.644-1.397-1.434-1.331-1.412 0.119-2.824 0.237-4.236 0.353-0.791 0.066-1.434 0.77-1.434 1.57v10.132c0 0.801 0.643 1.399 1.434 1.334zm62.822-5.421c1.412-0.146 2.824-0.292 4.236-0.44 0.791-0.083 1.434-0.801 1.434-1.602v-10.132c0-0.8-0.643-1.384-1.434-1.302-1.412 0.147-2.824 0.294-4.236 0.44-0.791 0.081-1.434 0.799-1.434 1.599v10.132c0 0.802 0.643 1.387 1.434 1.305zm-9.915-0.582v-10.132c0-0.801-0.643-1.387-1.434-1.308-1.412 0.141-2.824 0.28-4.236 0.419-0.79 0.078-1.434 0.791-1.434 1.592v10.132c0 0.8 0.643 1.389 1.434 1.311 1.412-0.139 2.824-0.279 4.236-0.419 0.791-0.079 1.433-0.794 1.434-1.595zm-17.198-9.84c-1.412 0.134-2.824 0.266-4.236 0.398-0.791 0.074-1.434 0.784-1.434 1.585v10.132c0 0.801 0.643 1.392 1.434 1.318 1.412-0.132 2.824-0.264 4.236-0.398 0.791-0.074 1.434-0.787 1.434-1.588v-10.132c0-0.8-0.643-1.389-1.434-1.315zm-19.954 14.681c1.412-0.124 2.824-0.25 4.236-0.376 0.791-0.07 1.434-0.78 1.434-1.58v-10.132c0-0.801-0.643-1.393-1.434-1.323-1.412 0.126-2.824 0.252-4.236 0.376-0.791 0.07-1.434 0.777-1.434 1.577v10.132c0 0.801 0.643 1.396 1.434 1.326zm-33.952 10.219v97.114c0 0.972 0.782 1.704 1.742 1.63 28.091-2.16 56.182-4.742 84.273-7.683 0.961-0.1 1.742-0.974 1.742-1.946v-97.114c0-0.972-0.781-1.681-1.742-1.58-28.091 2.941-56.182 5.523-84.273 7.683-0.961 0.073-1.742 0.924-1.742 1.896zm8.222 114.97v-10.132c-1e-3 -0.801-0.643-1.4-1.434-1.339-1.412 0.111-2.824 0.221-4.236 0.33-0.791 0.061-1.435 0.762-1.434 1.562v10.132c0 0.8 0.643 1.402 1.434 1.341 1.412-0.109 2.824-0.219 4.236-0.33 0.791-0.062 1.434-0.764 1.434-1.564zm8.499-0.683c0 0.8 0.643 1.399 1.434 1.333 1.412-0.117 2.824-0.234 4.236-0.353 0.791-0.066 1.434-0.772 1.434-1.573v-10.132c0-0.801-0.643-1.397-1.434-1.331-1.412 0.119-2.824 0.237-4.236 0.353-0.791 0.065-1.434 0.769-1.434 1.57v10.133zm17.19 0.172c1.412-0.124 2.824-0.25 4.236-0.376 0.79-0.071 1.434-0.78 1.434-1.58v-10.132c0-0.8-0.643-1.394-1.434-1.323-1.412 0.126-2.824 0.252-4.236 0.376-0.791 0.07-1.434 0.778-1.434 1.578v10.132c0 0.8 0.643 1.395 1.434 1.325zm51.303-4.697c0.791-0.082 1.434-0.801 1.434-1.602v-10.132c0-0.801-0.643-1.384-1.434-1.302-1.412 0.147-2.824 0.294-4.236 0.44-0.791 0.081-1.434 0.799-1.434 1.599v10.132c0 0.801 0.643 1.386 1.434 1.304 1.412-0.145 2.823-0.292 4.236-0.439zm-14.152-0.143v-10.132c0-0.8-0.643-1.387-1.434-1.309-1.412 0.141-2.824 0.281-4.236 0.419-0.791 0.078-1.434 0.792-1.434 1.592v10.132c1e-3 0.8 0.643 1.389 1.434 1.311 1.412-0.139 2.824-0.278 4.236-0.419 0.791-0.078 1.434-0.794 1.434-1.594zm-15.763-8.525c0-0.8-0.643-1.391-1.434-1.316-1.412 0.134-2.824 0.266-4.236 0.398-0.791 0.074-1.434 0.784-1.434 1.585v10.132c0 0.8 0.643 1.392 1.434 1.318 1.412-0.132 2.824-0.264 4.236-0.398 0.791-0.074 1.434-0.787 1.434-1.588v-10.131z"/>
		<path d="m958.62 330.96c-34.133 4.589-68.267 8.774-102.4 12.442v-150c34.133-3.667 68.267-7.853 102.4-12.442v150zm-86.96-121.87v-10.132c1e-3 -0.8-0.643-1.379-1.434-1.291-1.412 0.158-2.824 0.314-4.236 0.47-0.791 0.087-1.434 0.809-1.434 1.609v10.132c0 0.8 0.643 1.381 1.434 1.294 1.412-0.156 2.824-0.312 4.236-0.47 0.791-0.088 1.433-0.812 1.434-1.612zm9.933 0.328c1.412-0.162 2.824-0.325 4.236-0.489 0.791-0.092 1.434-0.818 1.434-1.618v-10.132c0-0.8-0.643-1.377-1.434-1.285-1.412 0.164-2.824 0.327-4.236 0.489-0.79 0.09-1.434 0.815-1.434 1.616v10.132c0 0.801 0.643 1.378 1.434 1.287zm62.822-7.305c1.412-0.185 2.824-0.371 4.236-0.557 0.791-0.104 1.434-0.841 1.434-1.641v-10.132c0-0.801-0.643-1.366-1.434-1.262-1.412 0.187-2.824 0.372-4.236 0.557-0.79 0.104-1.434 0.839-1.434 1.639v10.132c0 0.801 0.644 1.367 1.434 1.264zm-9.915-0.302v-10.132c0-0.8-0.643-1.369-1.434-1.267-1.412 0.181-2.824 0.362-4.236 0.541-0.792 0.101-1.434 0.833-1.434 1.634v10.132c0 0.8 0.643 1.37 1.434 1.269 1.412-0.18 2.824-0.36 4.236-0.541 0.79-0.102 1.433-0.836 1.434-1.636zm-17.198-9.339c-1.412 0.176-2.824 0.35-4.236 0.525-0.791 0.098-1.434 0.828-1.434 1.628v10.132c0 0.8 0.643 1.372 1.434 1.275 1.412-0.174 2.824-0.349 4.236-0.525 0.791-0.099 1.434-0.83 1.434-1.63v-10.132c0-0.8-0.643-1.371-1.434-1.273zm-19.954 15.288c1.412-0.168 2.824-0.337 4.236-0.507 0.791-0.095 1.434-0.824 1.434-1.624v-10.132c-1e-3 -0.801-0.643-1.374-1.434-1.279-1.412 0.17-2.824 0.339-4.236 0.507-0.791 0.095-1.434 0.821-1.434 1.622v10.132c0 0.8 0.644 1.375 1.434 1.281zm-33.952 11.31v97.114c0 0.972 0.781 1.678 1.742 1.572 28.091-3.092 56.182-6.527 84.273-10.243 0.961-0.127 1.742-1.022 1.742-1.994v-97.114c0-0.972-0.781-1.659-1.742-1.532-28.091 3.716-56.182 7.152-84.273 10.243-0.961 0.105-1.742 0.982-1.742 1.954zm8.222 114.7v-10.132c0-0.8-0.643-1.38-1.434-1.292-1.412 0.157-2.824 0.314-4.236 0.47-0.791 0.087-1.434 0.809-1.434 1.61v10.132c0 0.8 0.643 1.381 1.434 1.294 1.412-0.156 2.824-0.312 4.236-0.47 0.791-0.088 1.434-0.811 1.434-1.612zm8.499-0.959c0 0.8 0.643 1.379 1.434 1.287 1.412-0.162 2.824-0.325 4.236-0.489 0.791-0.092 1.434-0.818 1.434-1.618v-10.132c0-0.8-0.644-1.377-1.434-1.285-1.412 0.164-2.824 0.326-4.236 0.489-0.79 0.091-1.434 0.815-1.434 1.616v10.132zm17.19-0.371c1.412-0.168 2.824-0.337 4.236-0.507 0.791-0.095 1.434-0.824 1.434-1.624v-10.132c0-0.8-0.643-1.374-1.434-1.279-1.412 0.17-2.824 0.339-4.236 0.507-0.79 0.094-1.434 0.822-1.434 1.622v10.132c0 0.801 0.643 1.376 1.434 1.281zm51.303-6.203c0.791-0.104 1.434-0.841 1.434-1.641v-10.132c0-0.8-0.643-1.367-1.434-1.262-1.412 0.187-2.824 0.372-4.236 0.557-0.791 0.104-1.434 0.839-1.434 1.639v10.132c0 0.801 0.644 1.368 1.434 1.264 1.411-0.185 2.824-0.371 4.236-0.557zm-14.152 0.255v-10.132c0-0.801-0.643-1.369-1.434-1.268-1.412 0.181-2.824 0.362-4.236 0.541-0.791 0.101-1.434 0.834-1.434 1.634v10.132c0 0.8 0.643 1.37 1.434 1.269 1.412-0.18 2.824-0.36 4.236-0.541 0.791-0.101 1.434-0.834 1.434-1.635zm-15.763-8.066c0-0.8-0.643-1.372-1.434-1.273-1.412 0.176-2.824 0.35-4.236 0.524-0.791 0.097-1.434 0.827-1.434 1.628v10.132c0 0.8 0.643 1.373 1.434 1.275 1.412-0.174 2.824-0.349 4.236-0.524 0.791-0.098 1.434-0.83 1.434-1.63v-10.132z"/>
		<path d="m1061 316.1c-34.133 5.28-68.267 10.272-102.4 14.861v-150c34.133-4.589 68.267-9.581 102.4-14.861v150zm-86.96-119.86v-10.132c0-0.801-0.644-1.363-1.434-1.254-1.412 0.194-2.824 0.388-4.236 0.581-0.791 0.108-1.435 0.847-1.434 1.647v10.132c0 0.8 0.643 1.364 1.434 1.256 1.412-0.193 2.824-0.387 4.236-0.581 0.79-0.109 1.433-0.848 1.434-1.649zm9.933 0.074c1.412-0.198 2.824-0.396 4.236-0.595 0.791-0.111 1.434-0.853 1.434-1.654v-10.132c0-0.801-0.643-1.361-1.434-1.249-1.412 0.199-2.824 0.398-4.236 0.595-0.791 0.111-1.434 0.852-1.434 1.652v10.132c0 0.8 0.644 1.362 1.434 1.251zm62.822-8.767c1.412-0.215 2.824-0.431 4.236-0.647 0.791-0.121 1.434-0.871 1.434-1.671v-10.132c1e-3 -0.8-0.644-1.353-1.434-1.232-1.412 0.216-2.824 0.432-4.236 0.647-0.791 0.12-1.434 0.87-1.434 1.67v10.132c0 0.801 0.644 1.354 1.434 1.233v0zm-9.915-0.088v-10.132c0-0.8-0.643-1.355-1.434-1.236-1.412 0.212-2.824 0.424-4.236 0.635-0.791 0.118-1.434 0.865-1.434 1.666v10.132c0 0.8 0.644 1.355 1.434 1.237 1.412-0.211 2.824-0.423 4.236-0.635 0.79-0.119 1.433-0.867 1.434-1.667zm-17.198-8.954c-1.412 0.208-2.824 0.415-4.236 0.622-0.791 0.116-1.434 0.861-1.434 1.661v10.132c0 0.8 0.644 1.357 1.434 1.242 1.412-0.207 2.824-0.414 4.236-0.622 0.791-0.116 1.434-0.863 1.434-1.663v-10.132c0-0.799-0.642-1.356-1.434-1.24zm-19.954 15.759c1.412-0.203 2.824-0.406 4.236-0.609 0.79-0.113 1.433-0.859 1.434-1.659v-10.132c0-0.8-0.643-1.359-1.434-1.244-1.412 0.204-2.824 0.407-4.236 0.609-0.791 0.113-1.435 0.857-1.434 1.657v10.132c0 0.801 0.643 1.36 1.434 1.246zm-33.952 12.174v97.114c1e-3 0.972 0.782 1.657 1.742 1.526 28.091-3.833 56.182-7.933 84.273-12.235 0.96-0.147 1.742-1.058 1.742-2.03v-97.114c0-0.972-0.781-1.643-1.742-1.496-28.091 4.302-56.182 8.402-84.273 12.235-0.961 0.13-1.742 1.028-1.742 2zm8.222 114.48v-10.132c0-0.8-0.643-1.363-1.434-1.254-1.412 0.194-2.824 0.388-4.236 0.581-0.791 0.108-1.434 0.847-1.434 1.648v10.132c0 0.8 0.644 1.364 1.434 1.256 1.412-0.193 2.824-0.387 4.236-0.581 0.791-0.109 1.434-0.85 1.434-1.65zm8.499-1.177c0 0.801 0.643 1.362 1.434 1.251 1.412-0.198 2.824-0.396 4.236-0.595 0.791-0.112 1.434-0.853 1.434-1.654v-10.132c0-0.8-0.643-1.361-1.434-1.249-1.412 0.199-2.824 0.398-4.236 0.595-0.791 0.111-1.433 0.852-1.434 1.652v10.132zm17.19-0.798c1.412-0.202 2.824-0.405 4.236-0.609 0.791-0.114 1.434-0.858 1.434-1.659v-10.132c0-0.801-0.643-1.358-1.434-1.245-1.412 0.204-2.824 0.407-4.236 0.609-0.791 0.113-1.434 0.857-1.434 1.657v10.132c0 0.801 0.643 1.361 1.434 1.247zm51.303-7.363c0.791-0.122 1.435-0.87 1.434-1.671v-10.132c0-0.802-0.643-1.354-1.434-1.232-1.412 0.216-2.824 0.432-4.236 0.647-0.79 0.121-1.434 0.869-1.434 1.67v10.132c0 0.801 0.643 1.354 1.434 1.233 1.412-0.216 2.824-0.431 4.236-0.647zm-14.152 0.558v-10.132c1e-3 -0.801-0.644-1.355-1.434-1.236-1.412 0.212-2.824 0.424-4.236 0.635-0.791 0.118-1.434 0.865-1.434 1.666v10.132c0 0.8 0.643 1.356 1.434 1.237 1.412-0.211 2.824-0.423 4.236-0.635 0.791-0.119 1.434-0.867 1.434-1.667zm-15.763-7.714c0-0.8-0.643-1.356-1.434-1.24-1.412 0.208-2.824 0.415-4.236 0.622-0.791 0.116-1.434 0.861-1.434 1.661v10.132c0 0.801 0.643 1.357 1.434 1.242 1.412-0.207 2.824-0.414 4.236-0.622 0.79-0.117 1.434-0.863 1.434-1.663v-10.132z"/>
		<path d="m1163.4 299.51c-34.133 5.741-68.267 11.309-102.4 16.589v-150c34.133-5.28 68.267-10.848 102.4-16.589v150zm-86.96-118.44v-10.132c0-0.801-0.643-1.35-1.434-1.226-1.412 0.222-2.824 0.443-4.236 0.663-0.79 0.124-1.435 0.875-1.434 1.676v10.132c0 0.8 0.643 1.351 1.434 1.228 1.412-0.221 2.824-0.442 4.236-0.663 0.791-0.126 1.434-0.878 1.434-1.678zm9.933-0.115c1.412-0.224 2.824-0.448 4.236-0.673 0.791-0.126 1.434-0.88 1.434-1.68v-10.132c0-0.8-0.643-1.349-1.434-1.223-1.412 0.225-2.824 0.449-4.236 0.673-0.79 0.126-1.435 0.879-1.434 1.679v10.132c0 0.801 0.644 1.35 1.434 1.224zm62.822-9.803c1.412-0.235 2.824-0.471 4.236-0.707 0.791-0.132 1.434-0.891 1.434-1.691v-10.132c0-0.8-0.644-1.343-1.434-1.212-1.412 0.236-2.824 0.472-4.236 0.707-0.791 0.132-1.434 0.89-1.434 1.691v10.132c0 0.799 0.644 1.344 1.434 1.212zm-9.915 0.058v-10.132c0-0.801-0.642-1.345-1.434-1.214-1.412 0.234-2.824 0.467-4.236 0.7-0.79 0.131-1.435 0.887-1.434 1.688v10.132c0 0.8 0.644 1.345 1.434 1.215 1.412-0.233 2.824-0.466 4.236-0.7 0.791-0.131 1.433-0.889 1.434-1.689zm-17.198-8.684c-1.412 0.231-2.824 0.461-4.236 0.692-0.791 0.129-1.435 0.885-1.434 1.685v10.132c0 0.8 0.643 1.347 1.434 1.218 1.412-0.23 2.824-0.461 4.236-0.692 0.791-0.129 1.434-0.885 1.434-1.686v-10.132c1e-3 -0.801-0.643-1.347-1.434-1.217zm-19.954 16.096c1.412-0.227 2.824-0.455 4.236-0.683 0.791-0.127 1.434-0.883 1.434-1.683v-10.132c-1e-3 -0.801-0.643-1.348-1.434-1.22-1.412 0.228-2.824 0.456-4.236 0.683-0.791 0.127-1.434 0.881-1.434 1.682v10.132c0 0.8 0.643 1.348 1.434 1.221zm-33.952 12.806v97.114c0 0.972 0.781 1.641 1.742 1.491 28.091-4.386 56.182-8.96 84.273-13.658 0.96-0.161 1.741-1.082 1.742-2.055v-97.114c0-0.972-0.781-1.632-1.742-1.472-28.091 4.698-56.182 9.272-84.273 13.658-0.961 0.151-1.742 1.065-1.742 2.036zm8.222 114.32v-10.132c0-0.801-0.643-1.351-1.434-1.227-1.412 0.222-2.824 0.443-4.236 0.663-0.791 0.124-1.434 0.876-1.434 1.676v10.132c0 0.8 0.644 1.351 1.434 1.228 1.412-0.221 2.824-0.442 4.236-0.663 0.79-0.125 1.434-0.877 1.434-1.677zm8.499-1.339c0 0.8 0.643 1.35 1.434 1.224 1.412-0.224 2.824-0.448 4.236-0.673 0.79-0.126 1.434-0.88 1.434-1.68v-10.132c0-0.801-0.643-1.349-1.434-1.223-1.412 0.225-2.824 0.449-4.236 0.673-0.79 0.125-1.435 0.879-1.434 1.679v10.132zm17.19-1.109c1.412-0.227 2.824-0.455 4.236-0.683 0.79-0.128 1.435-0.883 1.434-1.683v-10.132c0-0.8-0.643-1.347-1.434-1.22-1.412 0.228-2.824 0.456-4.236 0.683-0.791 0.128-1.434 0.882-1.434 1.682v10.132c1e-3 0.8 0.643 1.348 1.434 1.221zm51.303-8.176c0.79-0.133 1.435-0.89 1.434-1.691v-10.132c1e-3 -0.8-0.644-1.343-1.434-1.212-1.412 0.236-2.824 0.472-4.236 0.707-0.792 0.132-1.434 0.89-1.434 1.69v10.132c0 0.8 0.644 1.344 1.434 1.213 1.412-0.236 2.824-0.471 4.236-0.707zm-14.152 0.764v-10.132c0-0.801-0.643-1.345-1.434-1.214-1.412 0.234-2.824 0.467-4.236 0.7-0.792 0.131-1.433 0.888-1.434 1.688v10.132c0 0.8 0.643 1.346 1.434 1.215 1.412-0.233 2.824-0.466 4.236-0.7 0.79-0.13 1.433-0.889 1.434-1.689zm-15.763-7.467c-1e-3 -0.8-0.642-1.346-1.434-1.217-1.412 0.231-2.824 0.461-4.236 0.692-0.79 0.129-1.435 0.884-1.434 1.685v10.132c0 0.8 0.643 1.347 1.434 1.218 1.412-0.23 2.824-0.461 4.236-0.692 0.791-0.13 1.434-0.886 1.434-1.686v-10.132z"/>
		<path d="m1265.8 281.88c-34.133 5.971-68.267 11.885-102.4 17.626v-150c34.133-5.741 68.267-11.654 102.4-17.626v150zm-86.96-117.6v-10.132c0-0.8-0.643-1.343-1.434-1.208-1.412 0.239-2.824 0.478-4.236 0.717-0.79 0.133-1.435 0.894-1.434 1.694v10.132c-1e-3 0.8 0.643 1.343 1.434 1.209 1.412-0.239 2.824-0.478 4.236-0.717 0.79-0.134 1.434-0.894 1.434-1.695zm9.933-0.235c1.412-0.241 2.824-0.482 4.236-0.723 0.79-0.135 1.434-0.896 1.434-1.697v-10.132c0-0.801-0.644-1.342-1.434-1.206-1.412 0.241-2.824 0.482-4.236 0.723-0.791 0.134-1.435 0.896-1.434 1.696v10.132c1e-3 0.8 0.643 1.342 1.434 1.207zm62.822-10.416c1.412-0.246 2.824-0.493 4.236-0.739 0.792-0.139 1.434-0.901 1.434-1.702v-10.132c-1e-3 -0.801-0.643-1.339-1.434-1.201-1.412 0.247-2.824 0.493-4.236 0.739-0.79 0.138-1.434 0.901-1.434 1.702v10.132c1e-3 0.8 0.644 1.339 1.434 1.201zm-9.915 0.137v-10.132c0-0.8-0.643-1.339-1.434-1.202-1.412 0.246-2.824 0.491-4.236 0.736-0.79 0.137-1.435 0.9-1.434 1.701v10.132c-1e-3 0.8 0.644 1.34 1.434 1.203 1.412-0.245 2.824-0.491 4.236-0.736 0.79-0.138 1.433-0.901 1.434-1.702zm-17.198-8.531l-4.236 0.732c-0.79 0.137-1.433 0.899-1.434 1.699v10.132c0 0.801 0.643 1.34 1.434 1.204l4.236-0.732c0.791-0.137 1.434-0.9 1.434-1.7v-10.132c1e-3 -0.8-0.643-1.339-1.434-1.203zm-19.954 16.298c1.412-0.242 2.824-0.485 4.236-0.728 0.791-0.137 1.434-0.897 1.434-1.698v-10.132c-1e-3 -0.8-0.643-1.341-1.434-1.205-1.412 0.243-2.824 0.486-4.236 0.728-0.792 0.136-1.434 0.898-1.434 1.698v10.132c1e-3 0.801 0.643 1.341 1.434 1.205zm-33.952 13.211v97.114c1e-3 0.972 0.782 1.631 1.742 1.469 28.091-4.749 56.182-9.607 84.273-14.512 0.96-0.168 1.743-1.095 1.742-2.067v-97.114c0-0.972-0.782-1.626-1.742-1.459-28.091 4.905-56.182 9.764-84.273 14.512-0.961 0.162-1.742 1.085-1.742 2.057zm8.222 114.22v-10.132c0-0.8-0.643-1.342-1.434-1.209-1.412 0.239-2.824 0.478-4.236 0.717-0.791 0.134-1.434 0.894-1.434 1.694v10.132c0 0.801 0.644 1.343 1.434 1.209 1.412-0.239 2.824-0.478 4.236-0.717 0.791-0.133 1.434-0.894 1.434-1.694zm8.5-1.442c0 0.8 0.643 1.342 1.434 1.207 1.412-0.241 2.824-0.482 4.236-0.723 0.791-0.135 1.434-0.896 1.434-1.697v-10.132c0-0.8-0.644-1.342-1.434-1.207-1.412 0.241-2.824 0.482-4.236 0.723-0.79 0.135-1.433 0.896-1.434 1.696v10.133zm17.189-1.305c1.412-0.242 2.824-0.485 4.236-0.728 0.791-0.136 1.434-0.898 1.434-1.698v-10.132c0-0.8-0.643-1.342-1.434-1.205-1.412 0.243-2.824 0.486-4.236 0.728-0.791 0.135-1.433 0.897-1.434 1.698v10.132c0 0.8 0.642 1.34 1.434 1.205zm51.303-8.643c0.791-0.138 1.434-0.902 1.434-1.702v-10.132c0-0.801-0.643-1.34-1.434-1.201-1.412 0.246-2.824 0.493-4.236 0.739-0.791 0.138-1.434 0.901-1.434 1.702v10.132c0 0.801 0.643 1.339 1.434 1.201 1.412-0.246 2.824-0.493 4.236-0.739zm-14.152 0.876v-10.132c0-0.8-0.643-1.34-1.434-1.202-1.412 0.246-2.824 0.491-4.236 0.736-0.79 0.138-1.434 0.899-1.434 1.701v10.132c0 0.8 0.643 1.34 1.434 1.203 1.412-0.245 2.824-0.491 4.236-0.736 0.792-0.139 1.434-0.901 1.434-1.702zm-15.763-7.328c0-0.8-0.644-1.34-1.434-1.203l-4.236 0.732c-0.791 0.137-1.434 0.899-1.434 1.699v10.132c0 0.8 0.644 1.341 1.434 1.204l4.236-0.732c0.791-0.137 1.434-0.899 1.434-1.7v-10.132z"/>
		<path d="m1368.2 263.91c-34.133 5.971-68.267 12-102.4 17.971v-150c34.133-5.971 68.267-12 102.4-17.971v150zm-86.96-117.35v-10.132c0-0.8-0.645-1.339-1.434-1.2-1.412 0.248-2.824 0.495-4.236 0.743-0.79 0.138-1.434 0.902-1.434 1.703v10.132c0 0.801 0.644 1.339 1.434 1.2 1.412-0.247 2.824-0.495 4.236-0.743 0.79-0.138 1.434-0.902 1.434-1.703zm9.933-0.288c1.412-0.248 2.824-0.496 4.236-0.744 0.792-0.139 1.433-0.903 1.434-1.703v-10.132c0-0.801-0.643-1.338-1.434-1.2-1.412 0.248-2.824 0.496-4.236 0.744-0.791 0.139-1.434 0.903-1.434 1.703v10.132c-1e-3 0.8 0.644 1.338 1.434 1.2zm62.822-10.606c1.412-0.248 2.824-0.495 4.236-0.742 0.791-0.139 1.434-0.902 1.434-1.703v-10.132c0-0.8-0.643-1.339-1.434-1.2-1.412 0.247-2.824 0.495-4.236 0.742-0.79 0.139-1.434 0.903-1.434 1.703v10.132c0 0.801 0.644 1.34 1.434 1.2zm-9.915 0.15v-10.132c1e-3 -0.801-0.643-1.338-1.434-1.2-1.412 0.248-2.824 0.496-4.236 0.744-0.79 0.139-1.434 0.902-1.434 1.703v10.132c0 0.8 0.644 1.339 1.434 1.2 1.412-0.248 2.824-0.496 4.236-0.744 0.79-0.138 1.434-0.902 1.434-1.703zm-17.198-8.494c-1.412 0.248-2.824 0.496-4.236 0.745-0.791 0.139-1.434 0.903-1.434 1.704v10.132c0 0.801 0.644 1.338 1.434 1.2 1.412-0.248 2.824-0.496 4.236-0.745 0.792-0.139 1.434-0.904 1.434-1.704v-10.132c0-0.801-0.644-1.339-1.434-1.2zm-19.954 16.366c1.412-0.248 2.824-0.496 4.236-0.745 0.791-0.139 1.434-0.903 1.434-1.704v-10.132c0-0.8-0.644-1.339-1.434-1.2-1.412 0.248-2.824 0.496-4.236 0.745-0.791 0.139-1.433 0.903-1.434 1.703v10.132c0 0.802 0.644 1.339 1.434 1.201zm-33.952 13.386v97.114c0 0.972 0.781 1.626 1.742 1.458 28.091-4.922 56.182-9.876 84.272-14.798 0.961-0.168 1.742-1.096 1.742-2.068v-97.114c0-0.972-0.782-1.626-1.742-1.458-28.091 4.922-56.182 9.876-84.272 14.798-0.961 0.168-1.742 1.096-1.742 2.068zm8.222 114.17v-10.132c0-0.8-0.643-1.339-1.434-1.2-1.412 0.248-2.824 0.495-4.236 0.743-0.791 0.138-1.434 0.902-1.434 1.703v10.132c0 0.8 0.644 1.339 1.434 1.2 1.412-0.247 2.824-0.495 4.236-0.743 0.79-0.138 1.435-0.903 1.434-1.703zm8.499-1.488c0 0.801 0.644 1.339 1.434 1.2 1.412-0.248 2.824-0.496 4.236-0.744 0.792-0.139 1.434-0.903 1.434-1.703v-10.132c1e-3 -0.8-0.644-1.339-1.434-1.2-1.412 0.248-2.824 0.496-4.236 0.744-0.79 0.138-1.433 0.903-1.434 1.703v10.132zm17.19-1.384c1.412-0.248 2.824-0.496 4.236-0.745 0.791-0.139 1.434-0.903 1.434-1.704v-10.132c0-0.801-0.643-1.339-1.434-1.2-1.412 0.248-2.824 0.496-4.236 0.745-0.792 0.139-1.433 0.903-1.434 1.704v10.132c-1e-3 0.8 0.644 1.339 1.434 1.2zm51.303-8.764c0.791-0.139 1.435-0.902 1.434-1.703v-10.132c-1e-3 -0.801-0.643-1.339-1.434-1.2-1.412 0.247-2.824 0.495-4.236 0.742-0.791 0.139-1.434 0.903-1.434 1.703v10.132c-1e-3 0.8 0.643 1.339 1.434 1.2 1.412-0.247 2.824-0.495 4.236-0.742zm-14.152 0.892v-10.132c0-0.801-0.644-1.339-1.434-1.2-1.412 0.248-2.824 0.496-4.236 0.744-0.79 0.139-1.434 0.903-1.434 1.704v10.132c0 0.801 0.645 1.339 1.434 1.2 1.412-0.248 2.824-0.496 4.236-0.744 0.791-0.139 1.434-0.903 1.434-1.704zm-15.763-7.294c0-0.8-0.643-1.338-1.434-1.199-1.412 0.248-2.824 0.496-4.236 0.744-0.791 0.139-1.434 0.903-1.434 1.704v10.132c0 0.8 0.643 1.338 1.434 1.2 1.412-0.248 2.824-0.496 4.236-0.744 0.791-0.14 1.434-0.903 1.434-1.704v-10.133z"/>
		<path d="m1470.6 246.29c-34.133 5.741-68.267 11.654-102.4 17.626v-150c34.133-5.971 68.267-11.885 102.4-17.626v150zm-86.96-117.69v-10.132c0-0.801-0.643-1.34-1.434-1.202-1.412 0.246-2.824 0.493-4.236 0.739-0.791 0.138-1.434 0.901-1.434 1.702v10.132c0 0.801 0.643 1.339 1.434 1.201 1.412-0.247 2.824-0.493 4.236-0.739 0.79-0.138 1.435-0.901 1.434-1.701zm9.933-0.275c1.412-0.246 2.824-0.491 4.236-0.736 0.791-0.137 1.434-0.9 1.434-1.701v-10.132c0-0.801-0.644-1.34-1.434-1.203-1.412 0.245-2.824 0.491-4.236 0.736-0.791 0.138-1.433 0.901-1.434 1.701v10.132c0 0.801 0.643 1.34 1.434 1.203zm62.822-10.37c1.412-0.239 2.824-0.479 4.236-0.717 0.791-0.133 1.434-0.894 1.434-1.694v-10.132c0-0.801-0.644-1.343-1.434-1.209-1.412 0.239-2.824 0.478-4.236 0.717-0.791 0.134-1.435 0.895-1.434 1.695v10.132c0 0.8 0.644 1.342 1.434 1.208zm-9.915 0.095v-10.132c0-0.8-0.643-1.342-1.434-1.207-1.412 0.241-2.824 0.482-4.236 0.723-0.791 0.135-1.433 0.896-1.434 1.697v10.132c0 0.801 0.643 1.342 1.434 1.207 1.412-0.241 2.824-0.482 4.236-0.723 0.79-0.136 1.434-0.897 1.434-1.697zm-17.198-8.573c-1.412 0.242-2.824 0.485-4.236 0.728-0.791 0.136-1.434 0.898-1.434 1.698v10.132c0 0.801 0.643 1.341 1.434 1.205 1.412-0.243 2.824-0.486 4.236-0.728 0.791-0.135 1.434-0.898 1.434-1.698v-10.132c0-0.8-0.643-1.341-1.434-1.205zm-19.954 16.298l4.236-0.732c0.789-0.136 1.434-0.899 1.434-1.699v-10.132c0-0.8-0.644-1.34-1.434-1.204l-4.236 0.732c-0.791 0.136-1.434 0.899-1.434 1.7v10.132c0 0.8 0.643 1.34 1.434 1.203zm-33.952 13.332v97.114c1e-3 0.972 0.781 1.627 1.742 1.459 28.091-4.905 56.182-9.765 84.273-14.514 0.96-0.162 1.743-1.085 1.742-2.057v-97.114c0-0.972-0.781-1.631-1.742-1.469-28.091 4.749-56.182 9.609-84.273 14.514-0.961 0.167-1.742 1.095-1.742 2.067zm8.222 114.17v-10.132c0-0.8-0.644-1.34-1.434-1.202-1.412 0.246-2.824 0.493-4.236 0.739-0.791 0.138-1.435 0.902-1.434 1.702v10.132c0 0.8 0.643 1.339 1.434 1.201 1.412-0.246 2.824-0.493 4.236-0.739 0.79-0.137 1.435-0.901 1.434-1.701zm8.5-1.478c-1e-3 0.801 0.643 1.339 1.434 1.202 1.412-0.246 2.824-0.491 4.236-0.736 0.791-0.137 1.434-0.9 1.434-1.701v-10.132c-1e-3 -0.8-0.644-1.339-1.434-1.203-1.412 0.245-2.824 0.491-4.236 0.736-0.791 0.137-1.434 0.9-1.434 1.701-1e-3 3.378-1e-3 6.756 0 10.133zm17.189-1.347l4.236-0.732c0.791-0.137 1.434-0.899 1.434-1.699v-10.132c1e-3 -0.8-0.644-1.341-1.434-1.204l-4.236 0.732c-0.79 0.137-1.433 0.899-1.434 1.7v10.132c0 0.801 0.642 1.34 1.434 1.203zm51.303-8.538c0.791-0.134 1.434-0.894 1.434-1.694v-10.132c0-0.801-0.643-1.343-1.434-1.209-1.412 0.239-2.824 0.478-4.236 0.717-0.791 0.134-1.435 0.894-1.434 1.695v10.132c0 0.801 0.644 1.343 1.434 1.208 1.412-0.239 2.824-0.478 4.236-0.717zm-14.152 0.813v-10.132c1e-3 -0.8-0.645-1.342-1.434-1.207-1.412 0.241-2.824 0.482-4.236 0.723-0.791 0.134-1.433 0.896-1.434 1.697v10.132c1e-3 0.801 0.643 1.342 1.434 1.207 1.412-0.241 2.824-0.482 4.236-0.723 0.791-0.136 1.435-0.896 1.434-1.697zm-15.763-7.368c0-0.801-0.644-1.342-1.434-1.205-1.412 0.242-2.824 0.485-4.236 0.728-0.792 0.136-1.434 0.897-1.434 1.698v10.132c0 0.801 0.643 1.341 1.434 1.205 1.412-0.243 2.824-0.486 4.236-0.728 0.791-0.136 1.435-0.897 1.434-1.698v-10.132z"/>
		<path d="m1573 229.7c-34.134 5.28-68.267 10.848-102.4 16.589v-150c34.133-5.741 68.266-11.309 102.4-16.589v150zm-86.96-118.62v-10.132c1e-3 -0.801-0.644-1.344-1.434-1.213-1.412 0.236-2.824 0.471-4.236 0.707-0.79 0.132-1.435 0.891-1.434 1.691v10.132c0 0.801 0.644 1.344 1.434 1.212 1.412-0.236 2.824-0.472 4.236-0.707 0.79-0.131 1.434-0.889 1.434-1.69zm9.933-0.194c1.412-0.234 2.824-0.467 4.236-0.7 0.792-0.13 1.434-0.888 1.434-1.688v-10.132c0-0.8-0.643-1.346-1.434-1.215-1.412 0.233-2.824 0.466-4.236 0.7-0.791 0.131-1.434 0.889-1.434 1.689v10.132c-1e-3 0.8 0.643 1.345 1.434 1.214zm62.822-9.711c1.412-0.222 2.824-0.443 4.236-0.664 0.791-0.124 1.434-0.875 1.434-1.676v-10.132c-1e-3 -0.8-0.643-1.352-1.434-1.228-1.412 0.221-2.824 0.442-4.236 0.664-0.791 0.124-1.434 0.877-1.434 1.677v10.132c0 0.801 0.643 1.351 1.434 1.227zm-9.915-0.026v-10.132c0-0.8-0.643-1.349-1.434-1.224-1.412 0.224-2.824 0.449-4.236 0.674-0.791 0.126-1.434 0.879-1.434 1.68v10.132c1e-3 0.801 0.643 1.349 1.434 1.223 1.412-0.225 2.824-0.449 4.236-0.674 0.791-0.126 1.434-0.878 1.434-1.679zm-17.198-8.768c-1.412 0.227-2.824 0.455-4.236 0.683-0.791 0.127-1.434 0.883-1.434 1.683v10.132c0 0.801 0.643 1.347 1.434 1.22 1.412-0.228 2.824-0.456 4.236-0.683 0.791-0.127 1.435-0.882 1.434-1.682v-10.132c0-0.801-0.643-1.349-1.434-1.221zm-19.954 16.096c1.412-0.231 2.824-0.461 4.236-0.692 0.792-0.129 1.434-0.885 1.434-1.685v-10.132c0-0.8-0.644-1.347-1.434-1.218-1.412 0.23-2.824 0.461-4.236 0.692-0.791 0.13-1.434 0.886-1.434 1.686v10.132c1e-3 0.801 0.644 1.346 1.434 1.217zm-33.952 13.049v97.114c0 0.972 0.781 1.632 1.742 1.472 28.091-4.699 56.182-9.274 84.272-13.661 0.961-0.15 1.742-1.062 1.742-2.035v-97.114c0-0.972-0.781-1.642-1.742-1.491-28.091 4.387-56.182 8.962-84.272 13.661-0.961 0.16-1.742 1.082-1.742 2.054zm8.222 114.24v-10.132c1e-3 -0.8-0.644-1.345-1.434-1.213-1.412 0.236-2.824 0.471-4.236 0.707-0.791 0.132-1.433 0.891-1.434 1.692v10.132c0 0.801 0.643 1.343 1.434 1.212 1.412-0.236 2.824-0.472 4.236-0.707 0.79-0.133 1.435-0.891 1.434-1.691zm8.499-1.409c0 0.801 0.643 1.345 1.434 1.214 1.412-0.234 2.824-0.467 4.236-0.7 0.79-0.131 1.435-0.888 1.434-1.688v-10.132c0-0.801-0.643-1.346-1.434-1.215-1.412 0.233-2.824 0.466-4.236 0.7-0.791 0.131-1.433 0.889-1.434 1.689v10.132zm17.19-1.195c1.412-0.231 2.824-0.462 4.236-0.692 0.791-0.129 1.434-0.885 1.434-1.685v-10.132c-1e-3 -0.801-0.643-1.347-1.434-1.218-1.412 0.23-2.824 0.461-4.236 0.692-0.79 0.13-1.433 0.885-1.434 1.686v10.132c0 0.801 0.643 1.346 1.434 1.217zm51.303-7.966c0.791-0.124 1.435-0.875 1.434-1.676v-10.132c1e-3 -0.801-0.644-1.351-1.434-1.228-1.412 0.221-2.824 0.442-4.236 0.664-0.791 0.124-1.434 0.877-1.434 1.677v10.132c0 0.801 0.643 1.349 1.434 1.226 1.412-0.221 2.824-0.442 4.236-0.663zm-14.152 0.638v-10.132c0-0.8-0.643-1.35-1.434-1.224-1.412 0.224-2.824 0.449-4.236 0.674-0.791 0.126-1.434 0.88-1.434 1.68v10.132c0 0.8 0.643 1.349 1.434 1.223 1.412-0.225 2.824-0.45 4.236-0.674 0.79-0.126 1.434-0.879 1.434-1.679zm-15.763-7.547c0-0.8-0.643-1.348-1.434-1.221-1.412 0.227-2.824 0.455-4.236 0.683-0.79 0.127-1.434 0.882-1.434 1.683v10.132c0 0.801 0.644 1.348 1.434 1.22 1.412-0.228 2.824-0.456 4.236-0.683 0.791-0.127 1.434-0.881 1.434-1.682v-10.132z"/>
		<path d="m1675.4 214.84c-34.133 4.589-68.267 9.581-102.4 14.861v-150c34.133-5.28 68.267-10.272 102.4-14.861v150zm-86.96-120.13v-10.132c1e-3 -0.801-0.643-1.354-1.434-1.233-1.412 0.215-2.824 0.431-4.236 0.647-0.791 0.121-1.435 0.871-1.434 1.671v10.132c-1e-3 0.8 0.643 1.353 1.434 1.232 1.412-0.216 2.824-0.432 4.236-0.647 0.79-0.121 1.433-0.87 1.434-1.67zm9.933-0.048c1.412-0.212 2.824-0.424 4.236-0.635 0.79-0.118 1.434-0.865 1.434-1.666v-10.132c0-0.8-0.644-1.355-1.434-1.237-1.412 0.211-2.824 0.423-4.236 0.635-0.791 0.119-1.434 0.867-1.434 1.667v10.132c0 0.801 0.644 1.356 1.434 1.236zm62.822-8.627c1.412-0.194 2.824-0.388 4.236-0.581 0.79-0.107 1.433-0.847 1.434-1.647v-10.132c0-0.801-0.642-1.364-1.434-1.256-1.412 0.193-2.824 0.387-4.236 0.581-0.79 0.109-1.434 0.849-1.434 1.649v10.132c-1e-3 0.8 0.643 1.363 1.434 1.254zm-9.915-0.214v-10.132c1e-3 -0.8-0.643-1.361-1.434-1.251-1.412 0.198-2.824 0.396-4.236 0.596-0.79 0.111-1.434 0.853-1.434 1.654v10.132c-1e-3 0.801 0.643 1.36 1.434 1.249 1.412-0.199 2.824-0.398 4.236-0.596 0.791-0.111 1.434-0.852 1.434-1.652zm-17.198-9.079c-1.412 0.203-2.824 0.406-4.236 0.609-0.791 0.114-1.434 0.858-1.434 1.659v10.132c0 0.8 0.644 1.359 1.434 1.245 1.412-0.204 2.824-0.407 4.236-0.609 0.79-0.113 1.434-0.857 1.434-1.657v-10.132c0-0.802-0.643-1.361-1.434-1.247zm-19.954 15.759c1.412-0.208 2.824-0.416 4.236-0.623 0.791-0.116 1.434-0.861 1.434-1.661v-10.132c1e-3 -0.8-0.643-1.357-1.434-1.242-1.412 0.207-2.824 0.415-4.236 0.623-0.79 0.117-1.434 0.863-1.434 1.663v10.132c1e-3 0.801 0.643 1.356 1.434 1.24zm-33.952 12.537v97.114c0 0.972 0.781 1.644 1.742 1.496 28.091-4.303 56.182-8.405 84.273-12.24 0.96-0.131 1.742-1.029 1.742-2.001v-97.114c0-0.972-0.781-1.657-1.742-1.526-28.091 3.835-56.182 7.937-84.273 12.24-0.961 0.148-1.742 1.059-1.742 2.031zm8.222 114.35v-10.132c0-0.8-0.643-1.354-1.434-1.234-1.412 0.215-2.824 0.431-4.236 0.647-0.791 0.121-1.434 0.871-1.434 1.672v10.132c0 0.8 0.643 1.353 1.434 1.232 1.412-0.216 2.824-0.432 4.236-0.647 0.791-0.121 1.433-0.87 1.434-1.67zm8.499-1.284c0 0.801 0.642 1.355 1.434 1.236 1.412-0.212 2.824-0.424 4.236-0.635 0.791-0.119 1.434-0.865 1.434-1.666v-10.132c0-0.801-0.643-1.356-1.434-1.237-1.412 0.211-2.824 0.423-4.236 0.635-0.791 0.119-1.434 0.867-1.434 1.667v10.132zm17.19-0.925c1.412-0.208 2.824-0.416 4.236-0.623 0.79-0.116 1.435-0.861 1.434-1.661v-10.132c1e-3 -0.801-0.643-1.357-1.434-1.242-1.412 0.207-2.824 0.414-4.236 0.623-0.791 0.117-1.434 0.863-1.434 1.663v10.132c0 0.801 0.643 1.357 1.434 1.24zm51.303-7.048c0.791-0.108 1.434-0.847 1.434-1.647v-10.132c0-0.8-0.644-1.364-1.434-1.256-1.412 0.193-2.824 0.387-4.236 0.581-0.79 0.109-1.435 0.849-1.434 1.649v10.132c0 0.8 0.644 1.363 1.434 1.254 1.412-0.194 2.824-0.388 4.236-0.581zm-14.152 0.367v-10.132c0-0.8-0.643-1.362-1.434-1.251-1.412 0.198-2.824 0.396-4.236 0.596-0.791 0.112-1.434 0.854-1.434 1.654v10.132c0 0.8 0.643 1.361 1.434 1.249 1.412-0.199 2.824-0.398 4.236-0.596 0.791-0.11 1.434-0.851 1.434-1.652zm-15.763-7.833c0-0.8-0.642-1.359-1.434-1.246-1.412 0.203-2.824 0.406-4.236 0.609-0.791 0.114-1.434 0.858-1.434 1.659v10.132c0 0.8 0.643 1.359 1.434 1.245 1.412-0.204 2.824-0.407 4.236-0.609 0.791-0.114 1.433-0.857 1.434-1.657v-10.133z"/>
		<path d="m1777.8 202.4c-34.134 3.667-68.267 7.853-102.4 12.442v-150c34.133-4.589 68.266-8.774 102.4-12.442v150zm-86.96-122.22v-10.132c0-0.8-0.644-1.368-1.434-1.264-1.412 0.185-2.824 0.371-4.236 0.558-0.79 0.104-1.434 0.841-1.434 1.641v10.132c0 0.801 0.645 1.366 1.434 1.262 1.412-0.187 2.824-0.372 4.236-0.558 0.792-0.104 1.434-0.839 1.434-1.639zm9.933 0.167c1.412-0.181 2.824-0.362 4.236-0.542 0.79-0.101 1.435-0.833 1.434-1.634v-10.132c0-0.8-0.643-1.37-1.434-1.269-1.412 0.18-2.824 0.36-4.236 0.542-0.791 0.102-1.433 0.836-1.434 1.636v10.132c1e-3 0.8 0.643 1.369 1.434 1.267zm62.822-7.121c1.412-0.157 2.824-0.314 4.236-0.47 0.79-0.087 1.434-0.809 1.434-1.61v-10.132c1e-3 -0.801-0.644-1.381-1.434-1.294-1.412 0.156-2.824 0.313-4.236 0.47-0.791 0.088-1.434 0.812-1.434 1.612v10.132c0 0.802 0.643 1.381 1.434 1.292v0zm-9.915-0.469v-10.132c-1e-3 -0.8-0.643-1.378-1.434-1.287-1.412 0.162-2.824 0.325-4.236 0.489-0.791 0.092-1.434 0.818-1.434 1.618v10.132c1e-3 0.8 0.643 1.377 1.434 1.285 1.412-0.164 2.824-0.327 4.236-0.489 0.79-0.091 1.434-0.816 1.434-1.616zm-17.198-9.506c-1.412 0.168-2.824 0.337-4.236 0.507-0.791 0.095-1.434 0.824-1.434 1.624v10.132c-1e-3 0.8 0.643 1.374 1.434 1.279 1.412-0.17 2.824-0.339 4.236-0.507 0.791-0.094 1.434-0.822 1.434-1.622v-10.132c0-0.801-0.642-1.376-1.434-1.281zm-19.954 15.288c1.412-0.176 2.824-0.351 4.236-0.525 0.791-0.098 1.436-0.828 1.434-1.628v-10.132c0-0.801-0.643-1.372-1.434-1.275-1.412 0.174-2.824 0.349-4.236 0.525-0.79 0.098-1.433 0.829-1.434 1.63v10.132c1e-3 0.801 0.643 1.371 1.434 1.273zm-33.952 11.795v97.114c-1e-3 0.972 0.781 1.66 1.742 1.532 28.091-3.718 56.182-7.156 84.273-10.25 0.96-0.105 1.742-0.982 1.742-1.954v-97.114c0-0.972-0.782-1.678-1.742-1.572-28.091 3.094-56.182 6.532-84.273 10.25-0.961 0.127-1.741 1.022-1.742 1.994zm8.222 114.52v-10.132c0-0.801-0.644-1.367-1.434-1.264-1.412 0.185-2.824 0.371-4.236 0.558-0.791 0.104-1.434 0.841-1.434 1.642v10.132c0 0.8 0.644 1.366 1.434 1.262 1.412-0.187 2.824-0.372 4.236-0.558 0.79-0.105 1.434-0.84 1.434-1.64zm8.499-1.101c0 0.8 0.643 1.369 1.434 1.267 1.412-0.181 2.824-0.362 4.236-0.542 0.79-0.101 1.434-0.833 1.434-1.634v-10.132c0-0.801-0.644-1.37-1.434-1.269-1.412 0.18-2.824 0.36-4.236 0.542-0.79 0.101-1.434 0.836-1.434 1.636v10.132zm17.19-0.54c1.412-0.176 2.824-0.351 4.236-0.525 0.791-0.098 1.434-0.828 1.434-1.628v-10.132c0-0.8-0.643-1.373-1.434-1.275-1.412 0.174-2.824 0.349-4.236 0.525-0.79 0.098-1.433 0.83-1.434 1.63v10.132c0 0.8 0.643 1.371 1.434 1.273zm51.303-5.783c0.79-0.087 1.434-0.809 1.434-1.61v-10.132c0-0.8-0.643-1.381-1.434-1.294-1.412 0.156-2.824 0.313-4.236 0.47-0.791 0.089-1.434 0.811-1.434 1.612v10.132c0 0.8 0.643 1.38 1.434 1.291 1.412-0.157 2.824-0.314 4.236-0.469zm-14.152 0v-10.132c1e-3 -0.8-0.644-1.378-1.434-1.287-1.412 0.162-2.824 0.325-4.236 0.489-0.791 0.091-1.434 0.818-1.434 1.618v10.132c1e-3 0.8 0.643 1.377 1.434 1.285 1.412-0.164 2.824-0.327 4.236-0.489 0.79-0.091 1.435-0.816 1.434-1.616zm-15.763-8.225c0-0.801-0.643-1.375-1.434-1.281-1.412 0.168-2.824 0.337-4.236 0.507-0.79 0.095-1.434 0.824-1.434 1.624v10.132c-1e-3 0.8 0.643 1.374 1.434 1.279 1.412-0.17 2.824-0.339 4.236-0.507 0.79-0.094 1.434-0.821 1.434-1.622v-10.132z"/>
		<path d="m1880.2 193.07c-34.133 2.515-68.267 5.664-102.4 9.331v-150c34.133-3.667 68.267-6.816 102.4-9.331v150zm-86.96-124.91v-10.132c-1e-3 -0.8-0.644-1.386-1.434-1.304-1.412 0.146-2.824 0.292-4.236 0.44-0.791 0.083-1.434 0.801-1.434 1.602v10.132c0 0.801 0.643 1.384 1.434 1.301 1.412-0.148 2.824-0.294 4.236-0.44 0.789-0.082 1.433-0.799 1.434-1.599zm9.933 0.448c1.412-0.141 2.824-0.281 4.236-0.42 0.791-0.078 1.434-0.792 1.434-1.592v-10.132c0-0.801-0.644-1.388-1.434-1.311-1.412 0.139-2.824 0.279-4.236 0.42-0.791 0.078-1.434 0.795-1.434 1.595v10.132c0 0.801 0.643 1.387 1.434 1.308zm62.822-5.189c1.412-0.111 2.824-0.221 4.236-0.331 0.79-0.061 1.434-0.762 1.434-1.562v-10.132c0-0.801-0.642-1.402-1.434-1.341-1.412 0.109-2.824 0.219-4.236 0.331-0.791 0.062-1.434 0.765-1.434 1.565v10.132c0 0.801 0.643 1.401 1.434 1.338v0zm-9.916-0.791v-10.132c0-0.8-0.643-1.398-1.434-1.333-1.412 0.117-2.824 0.235-4.236 0.354-0.791 0.067-1.435 0.772-1.434 1.573v10.132c0 0.801 0.643 1.397 1.434 1.331 1.412-0.119 2.824-0.237 4.236-0.354 0.792-0.067 1.434-0.771 1.434-1.571zm-17.197-10.05c-1.412 0.124-2.824 0.25-4.236 0.376-0.791 0.071-1.435 0.78-1.434 1.58v10.132c0 0.8 0.643 1.394 1.434 1.323 1.412-0.127 2.824-0.252 4.236-0.376 0.792-0.07 1.434-0.777 1.434-1.578v-10.132c-1e-3 -0.799-0.643-1.395-1.434-1.325zm-19.954 14.683c1.412-0.134 2.824-0.266 4.236-0.398 0.791-0.074 1.434-0.785 1.434-1.585v-10.132c0-0.8-0.644-1.392-1.434-1.318-1.412 0.132-2.824 0.265-4.236 0.398-0.79 0.075-1.434 0.787-1.434 1.588v10.132c0 0.8 0.644 1.389 1.434 1.315zm-33.952 10.824v97.114c0 0.972 0.781 1.681 1.742 1.58 28.091-2.943 56.182-5.528 84.272-7.691 0.961-0.074 1.741-0.925 1.742-1.897v-97.114c-1e-3 -0.972-0.782-1.704-1.742-1.63-28.091 2.163-56.182 4.748-84.272 7.691-0.96 0.101-1.743 0.974-1.742 1.947zm8.222 114.75v-10.132c0-0.8-0.643-1.386-1.434-1.304-1.412 0.146-2.824 0.293-4.236 0.44-0.791 0.083-1.435 0.801-1.434 1.602v10.132c-1e-3 0.8 0.644 1.384 1.434 1.301 1.412-0.148 2.824-0.294 4.236-0.44 0.791-0.081 1.435-0.798 1.434-1.599zm8.499-0.859c0 0.801 0.644 1.387 1.434 1.308 1.412-0.141 2.824-0.281 4.236-0.42 0.792-0.078 1.433-0.792 1.434-1.592v-10.132c0-0.8-0.643-1.388-1.434-1.311-1.412 0.139-2.824 0.279-4.236 0.42-0.792 0.079-1.433 0.794-1.434 1.595v10.132zm17.19-0.04c1.412-0.134 2.824-0.266 4.236-0.398 0.791-0.074 1.434-0.785 1.434-1.585v-10.132c0-0.8-0.642-1.392-1.434-1.318-1.412 0.132-2.824 0.264-4.236 0.398-0.79 0.075-1.434 0.788-1.434 1.588v10.132c-1e-3 0.8 0.643 1.39 1.434 1.315zm51.303-4.172c0.792-0.061 1.434-0.762 1.434-1.562v-10.132c0-0.8-0.642-1.403-1.434-1.341-1.412 0.109-2.824 0.219-4.236 0.331-0.789 0.063-1.433 0.764-1.434 1.565v10.132c-1e-3 0.801 0.644 1.4 1.434 1.338 1.412-0.112 2.823-0.222 4.236-0.331zm-14.152-0.461v-10.132c0-0.8-0.643-1.399-1.434-1.333-1.412 0.117-2.824 0.235-4.236 0.354-0.792 0.066-1.434 0.772-1.434 1.573v10.132c-1e-3 0.801 0.644 1.397 1.434 1.331 1.412-0.119 2.824-0.237 4.236-0.354 0.791-0.067 1.434-0.771 1.434-1.571zm-15.763-8.724c0-0.801-0.643-1.396-1.434-1.326-1.412 0.124-2.824 0.25-4.236 0.376-0.791 0.071-1.435 0.78-1.434 1.58v10.132c0 0.801 0.642 1.394 1.434 1.323 1.412-0.127 2.824-0.252 4.236-0.376 0.79-0.07 1.434-0.777 1.434-1.578v-10.131z"/>
		<path d="m1982.6 187.54c-34.133 1.133-68.266 3.014-102.4 5.53v-150c34.133-2.515 68.266-4.397 102.4-5.53v150zm-86.96-128.18v-10.132c0-0.8-0.644-1.408-1.434-1.354-1.412 0.097-2.824 0.195-4.236 0.294-0.791 0.056-1.433 0.752-1.434 1.553v10.132c1e-3 0.801 0.643 1.406 1.434 1.351 1.412-0.099 2.824-0.197 4.236-0.294 0.791-0.055 1.433-0.749 1.434-1.55zm9.933 0.798c1.412-0.091 2.824-0.18 4.236-0.269 0.791-0.049 1.435-0.74 1.434-1.541v-10.132c0-0.8-0.643-1.412-1.434-1.362-1.412 0.089-2.824 0.178-4.236 0.269-0.791 0.051-1.435 0.744-1.434 1.544v10.132c-1e-3 0.8 0.644 1.409 1.434 1.359zm62.822-2.834c1.412-0.055 2.824-0.109 4.236-0.162 0.791-0.03 1.434-0.705 1.434-1.505v-10.132c0-0.801-0.643-1.428-1.434-1.398-1.412 0.053-2.824 0.107-4.236 0.162-0.791 0.031-1.434 0.708-1.434 1.508v10.132c1e-3 0.801 0.643 1.427 1.434 1.395zm-9.916-1.18v-10.132c-1e-3 -0.801-0.643-1.424-1.433-1.389-1.412 0.062-2.824 0.125-4.236 0.19-0.79 0.036-1.435 0.717-1.434 1.517v10.132c-1e-3 0.801 0.643 1.422 1.434 1.386 1.412-0.064 2.824-0.128 4.236-0.19 0.79-0.035 1.433-0.714 1.433-1.514zm-17.197-10.709c-1.412 0.071-2.824 0.143-4.236 0.217-0.791 0.042-1.435 0.726-1.434 1.527v10.132c-1e-3 0.801 0.644 1.417 1.434 1.377 1.412-0.073 2.824-0.146 4.236-0.217 0.791-0.04 1.433-0.723 1.434-1.523v-10.132c0-0.803-0.643-1.421-1.434-1.381zm-19.954 13.941c1.412-0.082 2.824-0.163 4.236-0.243 0.791-0.045 1.434-0.732 1.434-1.532v-10.132c1e-3 -0.801-0.643-1.416-1.434-1.371-1.412 0.08-2.824 0.161-4.236 0.243-0.79 0.046-1.434 0.735-1.434 1.535v10.132c0 0.802 0.644 1.414 1.434 1.368zm-33.952 9.624v97.114c-1e-3 0.973 0.782 1.708 1.742 1.64 28.091-1.978 56.182-3.521 84.272-4.563 0.96-0.036 1.741-0.855 1.742-1.827v-97.114c1e-3 -0.972-0.782-1.734-1.742-1.699-28.091 1.042-56.182 2.585-84.272 4.563-0.96 0.068-1.743 0.914-1.742 1.886zm8.222 115.04v-10.132c0-0.801-0.642-1.408-1.434-1.354-1.412 0.097-2.824 0.195-4.236 0.294-0.791 0.055-1.434 0.753-1.434 1.553v10.132c0 0.8 0.643 1.406 1.434 1.351 1.412-0.099 2.824-0.197 4.236-0.294 0.791-0.055 1.435-0.749 1.434-1.55zm8.5-0.562c0 0.801 0.643 1.41 1.434 1.359 1.412-0.091 2.824-0.18 4.236-0.269 0.792-0.05 1.434-0.741 1.434-1.541v-10.132c-1e-3 -0.801-0.644-1.412-1.434-1.362-1.412 0.089-2.824 0.178-4.236 0.269-0.79 0.051-1.434 0.744-1.434 1.544v10.132zm17.189 0.577c1.412-0.082 2.824-0.163 4.236-0.243 0.791-0.044 1.434-0.732 1.434-1.532v-10.132c0-0.8-0.642-1.416-1.434-1.371-1.412 0.08-2.824 0.161-4.236 0.243-0.79 0.046-1.435 0.735-1.434 1.536v10.132c-1e-3 0.8 0.643 1.413 1.434 1.367zm51.303-2.215c0.792-0.03 1.433-0.705 1.434-1.505v-10.132c-1e-3 -0.8-0.643-1.428-1.434-1.398-1.412 0.053-2.824 0.107-4.236 0.162-0.79 0.031-1.435 0.708-1.434 1.508v10.132c-1e-3 0.8 0.644 1.426 1.434 1.395 1.412-0.055 2.823-0.109 4.236-0.162zm-14.152-1.018v-10.132c1e-3 -0.801-0.643-1.423-1.434-1.389-1.412 0.062-2.824 0.125-4.236 0.19-0.791 0.036-1.433 0.717-1.434 1.518v10.132c1e-3 0.8 0.644 1.422 1.434 1.386 1.412-0.064 2.824-0.128 4.236-0.19 0.791-0.036 1.434-0.715 1.434-1.515zm-15.763-9.329c-1e-3 -0.801-0.642-1.42-1.434-1.38-1.412 0.071-2.824 0.143-4.236 0.217-0.791 0.041-1.434 0.726-1.434 1.527v10.132c0 0.8 0.642 1.418 1.434 1.377 1.412-0.073 2.824-0.146 4.236-0.217 0.792-0.04 1.434-0.723 1.434-1.523v-10.133z"/>
		<path d="m2085 186.5c-34.133-0.48-68.266-0.096-102.4 1.037v-150c34.134-1.133 68.267-1.517 102.4-1.037v150zm-86.96-132.04v-10.132c1e-3 -0.801-0.644-1.434-1.434-1.413-1.412 0.038-2.824 0.078-4.236 0.119-0.791 0.023-1.435 0.693-1.434 1.494v10.132c0 0.801 0.644 1.432 1.434 1.41 1.412-0.041 2.824-0.081 4.236-0.119 0.791-0.022 1.434-0.691 1.434-1.491zm9.934 1.213c1.412-0.031 2.824-0.061 4.236-0.09 0.792-0.016 1.434-0.68 1.434-1.48v-10.132c0-0.8-0.643-1.439-1.434-1.423-1.412 0.029-2.824 0.058-4.236 0.09-0.791 0.018-1.435 0.684-1.434 1.484v10.132c-1e-3 0.8 0.643 1.436 1.434 1.419zm62.821-0.054c1.412 0.01 2.824 0.022 4.236 0.034 0.791 8e-3 1.434-0.638 1.434-1.438v-10.132c0-0.8-0.642-1.458-1.434-1.465-1.412-0.013-2.824-0.024-4.236-0.034-0.791-6e-3 -1.435 0.642-1.434 1.442v10.132c0 0.8 0.643 1.455 1.434 1.461zm-9.915-1.637v-10.132c0-0.8-0.644-1.453-1.434-1.454-1.412-2e-3 -2.824-3e-3 -4.236-3e-3 -0.791 0-1.433 0.652-1.434 1.453v10.132c-1e-3 0.8 0.645 1.451 1.434 1.451 1.412 0 2.824 0 4.236 3e-3 0.79 0 1.435-0.649 1.434-1.45zm-17.198-11.484c-1.412 8e-3 -2.824 0.018-4.236 0.029-0.792 7e-3 -1.434 0.663-1.434 1.463v10.132c0 0.8 0.643 1.446 1.434 1.44 1.412-0.011 2.824-0.021 4.236-0.029 0.791-4e-3 1.434-0.659 1.434-1.459v-10.132c0-0.801-0.642-1.449-1.434-1.444zm-19.953 13.066c1.412-0.021 2.824-0.041 4.236-0.06 0.791-0.011 1.434-0.669 1.434-1.47v-10.132c0-0.801-0.643-1.443-1.434-1.433-1.412 0.018-2.824 0.038-4.236 0.06-0.791 0.012-1.434 0.673-1.434 1.474v10.132c0 0.8 0.642 1.441 1.434 1.429zm-33.953 8.195v97.114c0 0.972 0.781 1.74 1.742 1.711 28.091-0.824 56.182-1.134 84.273-0.867 0.961 0.01 1.741-0.773 1.741-1.746v-97.114c0-0.973-0.781-1.771-1.741-1.781-28.091-0.268-56.182 0.042-84.273 0.867-0.961 0.029-1.742 0.844-1.742 1.816zm8.222 115.38v-10.132c0-0.8-0.643-1.435-1.434-1.413-1.412 0.038-2.824 0.078-4.236 0.119-0.791 0.023-1.434 0.693-1.434 1.494v10.132c-1e-3 0.801 0.643 1.432 1.434 1.41 1.412-0.041 2.824-0.081 4.236-0.119 0.791-0.023 1.433-0.691 1.434-1.491zm8.5-0.207c0 0.8 0.642 1.436 1.434 1.419 1.412-0.031 2.824-0.061 4.236-0.09 0.792-0.016 1.434-0.68 1.434-1.48v-10.132c0-0.801-0.643-1.439-1.434-1.423-1.412 0.029-2.824 0.058-4.236 0.09-0.79 0.017-1.435 0.683-1.434 1.484v10.132zm17.189 1.31c1.412-0.021 2.824-0.041 4.236-0.06 0.791-0.01 1.433-0.669 1.434-1.47v-10.132c0-0.8-0.643-1.444-1.434-1.433-1.412 0.019-2.824 0.038-4.236 0.06-0.792 0.011-1.434 0.673-1.434 1.474v10.132c0 0.8 0.643 1.442 1.434 1.429zm51.302 0.089c0.791 8e-3 1.433-0.637 1.434-1.438v-10.132c0-0.8-0.643-1.458-1.434-1.465-1.412-0.013-2.824-0.024-4.236-0.034-0.792-5e-3 -1.434 0.642-1.434 1.442v10.132c-1e-3 0.8 0.644 1.455 1.434 1.461 1.413 9e-3 2.825 0.021 4.236 0.034zm-14.151-1.671v-10.132c-1e-3 -0.801-0.643-1.453-1.434-1.455-1.412-2e-3 -2.824-3e-3 -4.236-3e-3 -0.79 0-1.435 0.652-1.434 1.453v10.132c0 0.8 0.644 1.451 1.434 1.451 1.412 0 2.824 0 4.236 3e-3 0.791 1e-3 1.432-0.649 1.434-1.449zm-15.763-10.041c0-0.8-0.644-1.449-1.434-1.444-1.412 8e-3 -2.824 0.018-4.236 0.029-0.791 6e-3 -1.434 0.662-1.434 1.463v10.132c0 0.8 0.643 1.446 1.434 1.44 1.412-0.011 2.824-0.021 4.236-0.029 0.791-5e-3 1.434-0.659 1.434-1.459v-10.132z"/>
		<path d="m2187.4 190.65c-34.134-2.323-68.266-3.667-102.4-4.147v-150c34.134 0.48 68.266 1.824 102.4 4.147v150zm-86.96-136.49v-10.132c1e-3 -0.801-0.644-1.465-1.434-1.482-1.412-0.03-2.824-0.058-4.236-0.085-0.789-0.016-1.434 0.625-1.434 1.425v10.132c0 0.8 0.644 1.463 1.434 1.478 1.412 0.027 2.824 0.055 4.236 0.085 0.791 0.016 1.434-0.621 1.434-1.421zm9.933 1.695c1.412 0.038 2.824 0.077 4.236 0.118 0.791 0.023 1.433-0.609 1.434-1.409v-10.132c-1e-3 -0.8-0.644-1.471-1.434-1.494-1.412-0.041-2.824-0.08-4.236-0.118-0.792-0.021-1.434 0.613-1.434 1.414v10.132c1e-3 0.801 0.643 1.468 1.434 1.489zm62.822 3.15c1.412 0.085 2.824 0.171 4.236 0.26 0.792 0.049 1.434-0.561 1.434-1.361v-10.132c-1e-3 -0.8-0.643-1.492-1.434-1.542-1.412-0.088-2.824-0.175-4.236-0.26-0.792-0.048-1.434 0.566-1.434 1.366v10.132c1e-3 0.8 0.642 1.489 1.434 1.537zm-9.915-2.16v-10.132c-1e-3 -0.8-0.643-1.487-1.434-1.529-1.412-0.076-2.824-0.151-4.236-0.224-0.791-0.041-1.434 0.577-1.434 1.378v10.132c0 0.801 0.643 1.484 1.434 1.525 1.412 0.073 2.824 0.148 4.236 0.224 0.791 0.042 1.435-0.573 1.434-1.374zm-17.198-12.376c-1.412-0.064-2.824-0.127-4.236-0.188-0.789-0.034-1.434 0.59-1.434 1.39v10.132c0 0.801 0.642 1.479 1.434 1.513 1.412 0.061 2.824 0.124 4.236 0.188 0.793 0.036 1.434-0.585 1.435-1.386v-10.132c0-0.8-0.643-1.481-1.435-1.517zm-19.953 12.057c1.412 0.049 2.824 0.1 4.236 0.153 0.791 0.029 1.434-0.598 1.434-1.398v-10.132c1e-3 -0.8-0.644-1.476-1.434-1.505-1.412-0.052-2.824-0.103-4.236-0.153-0.791-0.027-1.434 0.601-1.434 1.402v10.132c0 0.8 0.643 1.473 1.434 1.501zm-33.953 6.536v97.114c-2e-3 0.972 0.781 1.777 1.742 1.795 28.091 0.52 56.182 1.631 84.272 3.399 0.96 0.061 1.743-0.68 1.742-1.653v-97.114c0-0.972-0.781-1.813-1.742-1.874-28.091-1.768-56.181-2.879-84.272-3.399-0.961-0.017-1.742 0.76-1.742 1.732zm8.222 115.77v-10.132c0-0.801-0.643-1.466-1.434-1.482-1.412-0.03-2.824-0.058-4.236-0.085-0.792-0.015-1.433 0.624-1.434 1.425v10.132c0 0.801 0.643 1.463 1.434 1.478 1.412 0.027 2.824 0.055 4.236 0.085 0.791 0.017 1.433-0.62 1.434-1.421zm8.5 0.206c0 0.8 0.643 1.468 1.434 1.49 1.412 0.038 2.824 0.077 4.236 0.118 0.791 0.023 1.434-0.609 1.434-1.409v-10.132c1e-3 -0.801-0.643-1.47-1.434-1.494-1.412-0.041-2.824-0.08-4.236-0.118-0.79-0.022-1.436 0.613-1.434 1.414v10.131zm17.189 2.16c1.412 0.049 2.824 0.1 4.236 0.153 0.791 0.03 1.433-0.598 1.434-1.398v-10.132c0-0.801-0.642-1.476-1.434-1.506-1.412-0.052-2.824-0.103-4.236-0.153-0.792-0.028-1.434 0.601-1.434 1.402v10.132c-1e-3 0.801 0.642 1.474 1.434 1.502zm51.302 2.738c0.791 0.05 1.433-0.561 1.434-1.361v-10.132c-1e-3 -0.801-0.642-1.492-1.434-1.542-1.412-0.088-2.824-0.175-4.236-0.26-0.79-0.047-1.434 0.565-1.434 1.366v10.132c0 0.801 0.643 1.49 1.434 1.537 1.413 0.085 2.825 0.171 4.236 0.26zm-14.151-2.42v-10.132c0-0.8-0.644-1.487-1.434-1.53-1.412-0.076-2.824-0.151-4.236-0.224-0.787-0.04-1.435 0.578-1.434 1.378v10.132c1e-3 0.801 0.642 1.484 1.434 1.525 1.412 0.073 2.824 0.147 4.236 0.224 0.791 0.044 1.434-0.572 1.434-1.373zm-15.763-10.858c1e-3 -0.8-0.646-1.482-1.434-1.517-1.412-0.064-2.824-0.127-4.236-0.188-0.791-0.034-1.435 0.589-1.434 1.39v10.132c-1e-3 0.801 0.643 1.479 1.434 1.513 1.412 0.061 2.824 0.124 4.236 0.188 0.79 0.036 1.434-0.586 1.434-1.386v-10.132z"/>
		<path d="m2289.8 200.67c-34.134-4.397-68.267-7.699-102.4-10.022v-150c34.134 2.323 68.267 5.626 102.4 10.022v150zm-86.96-141.52v-10.132c0-0.801-0.644-1.5-1.434-1.561-1.412-0.107-2.824-0.213-4.236-0.317-0.791-0.058-1.435 0.546-1.434 1.347v10.132c0 0.8 0.644 1.498 1.434 1.556 1.412 0.104 2.824 0.209 4.236 0.317 0.79 0.061 1.433-0.542 1.434-1.342zm9.933 2.246c1.412 0.117 2.823 0.235 4.236 0.355 0.79 0.067 1.434-0.528 1.435-1.329v-10.132c0-0.801-0.644-1.507-1.435-1.574-1.412-0.12-2.823-0.238-4.236-0.355-0.791-0.065-1.435 0.534-1.434 1.334v10.132c0 0.8 0.643 1.504 1.434 1.569zm62.822 6.777c1.412 0.169 2.824 0.341 4.236 0.514 0.79 0.097 1.433-0.474 1.434-1.275v-10.132c0-0.8-0.643-1.531-1.434-1.628-1.412-0.173-2.824-0.344-4.236-0.514-0.792-0.095-1.435 0.48-1.434 1.28v10.132c0 0.801 0.644 1.528 1.434 1.623zm-9.915-2.749v-10.132c1e-3 -0.801-0.642-1.525-1.434-1.614-1.412-0.16-2.824-0.317-4.236-0.473-0.789-0.087-1.435 0.493-1.434 1.294v10.132c-1e-3 0.801 0.642 1.522 1.434 1.609 1.412 0.156 2.824 0.314 4.236 0.473 0.79 0.089 1.436-0.489 1.434-1.289zm-17.197-13.384c-1.412-0.146-2.824-0.29-4.236-0.433-0.791-0.08-1.434 0.507-1.434 1.307v10.132c0 0.801 0.645 1.516 1.434 1.596 1.412 0.142 2.824 0.287 4.236 0.433 0.791 0.082 1.435-0.503 1.434-1.303v-10.132c0-0.8-0.644-1.518-1.434-1.6zm-19.955 10.911c1.412 0.129 2.824 0.26 4.236 0.393 0.79 0.075 1.435-0.515 1.435-1.316v-10.132c1e-3 -0.8-0.646-1.513-1.435-1.587-1.412-0.133-2.824-0.264-4.236-0.393-0.791-0.072-1.434 0.52-1.434 1.321v10.132c0 0.8 0.644 1.51 1.434 1.582zm-33.952 4.65v97.114c0 0.972 0.782 1.819 1.742 1.89 28.091 2.053 56.182 4.776 84.273 8.233 0.959 0.118 1.742-0.575 1.742-1.548v-97.114c-1e-3 -0.972-0.783-1.86-1.742-1.979-28.091-3.457-56.182-6.18-84.273-8.233-0.961-0.071-1.742 0.665-1.742 1.637zm8.222 116.22v-10.132c2e-3 -0.801-0.643-1.501-1.434-1.561-1.412-0.107-2.824-0.213-4.236-0.317-0.79-0.059-1.433 0.547-1.434 1.347v10.132c0 0.8 0.642 1.498 1.434 1.556 1.412 0.104 2.824 0.209 4.236 0.317 0.791 0.06 1.434-0.542 1.434-1.342zm8.5 0.676c0 0.801 0.642 1.504 1.434 1.569 1.412 0.116 2.824 0.235 4.236 0.354 0.791 0.067 1.435-0.529 1.434-1.329v-10.132c0-0.8-0.643-1.506-1.434-1.574-1.412-0.12-2.824-0.238-4.236-0.354-0.792-0.066-1.434 0.534-1.434 1.334v10.132zm17.189 3.124c1.412 0.129 2.824 0.261 4.236 0.393 0.792 0.074 1.432-0.516 1.434-1.316v-10.132c-1e-3 -0.801-0.642-1.513-1.434-1.587-1.412-0.133-2.824-0.264-4.236-0.393-0.791-0.072-1.435 0.52-1.434 1.321v10.132c-2e-3 0.8 0.643 1.509 1.434 1.582zm51.303 5.734c0.792 0.097 1.433-0.475 1.433-1.275v-10.132c2e-3 -0.801-0.644-1.531-1.433-1.628-1.412-0.173-2.824-0.344-4.236-0.514-0.791-0.095-1.434 0.48-1.434 1.28v10.132c0 0.8 0.642 1.529 1.434 1.623 1.412 0.17 2.824 0.341 4.236 0.514zm-14.152-3.263v-10.132c0-0.8-0.643-1.525-1.434-1.614-1.412-0.159-2.824-0.317-4.236-0.473-0.789-0.088-1.433 0.494-1.434 1.294v10.132c-1e-3 0.801 0.643 1.522 1.434 1.609 1.412 0.156 2.824 0.314 4.236 0.473 0.79 0.089 1.433-0.488 1.434-1.289zm-15.763-11.782c-1e-3 -0.8-0.644-1.518-1.434-1.601-1.412-0.146-2.824-0.29-4.236-0.433-0.791-0.08-1.435 0.507-1.434 1.307v10.132c0 0.801 0.644 1.517 1.434 1.596 1.412 0.143 2.824 0.287 4.236 0.433 0.791 0.082 1.435-0.502 1.434-1.303v-10.131z"/>
		<path d="m2392.2 217.26c-34.134-6.701-68.266-12.192-102.4-16.589v-150c34.134 4.397 68.266 9.888 102.4 16.589v150zm-86.961-147.14v-10.132c0-0.8-0.642-1.54-1.434-1.65-1.412-0.194-2.824-0.387-4.236-0.577-0.789-0.107-1.436 0.458-1.434 1.259v10.132c1e-3 0.8 0.644 1.538 1.434 1.645 1.412 0.191 2.824 0.383 4.236 0.577 0.793 0.108 1.434-0.454 1.434-1.254zm9.934 2.862c1.412 0.205 2.824 0.411 4.236 0.62 0.792 0.116 1.435-0.438 1.434-1.239v-10.132c0-0.8-0.643-1.547-1.434-1.664-1.412-0.208-2.824-0.415-4.236-0.62-0.791-0.115-1.434 0.444-1.434 1.245v10.132c-1e-3 0.8 0.644 1.543 1.434 1.658zm62.822 10.829c1.412 0.263 2.824 0.529 4.236 0.796 0.791 0.15 1.434-0.379 1.434-1.179v-10.132c-1e-3 -0.801-0.643-1.574-1.434-1.724-1.412-0.268-2.824-0.533-4.236-0.796-0.792-0.148-1.434 0.385-1.434 1.185v10.132c1e-3 0.8 0.643 1.57 1.434 1.718zm-9.915-3.407v-10.132c-2e-3 -0.801-0.644-1.567-1.434-1.709-1.412-0.253-2.824-0.503-4.236-0.752-0.79-0.139-1.432 0.399-1.433 1.2v10.132c1e-3 0.8 0.644 1.564 1.433 1.703 1.412 0.248 2.824 0.499 4.236 0.752 0.789 0.142 1.435-0.393 1.434-1.194zm-17.198-14.507c-1.412-0.238-2.824-0.473-4.236-0.707-0.791-0.131-1.434 0.415-1.434 1.215v10.132c1e-3 0.801 0.643 1.557 1.434 1.688 1.412 0.234 2.824 0.469 4.236 0.707 0.791 0.133 1.434-0.409 1.434-1.21v-10.132c2e-3 -0.8-0.643-1.56-1.434-1.693zm-19.954 9.632c1.412 0.219 2.824 0.44 4.236 0.663 0.791 0.125 1.434-0.424 1.434-1.224v-10.132c-1e-3 -0.801-0.645-1.554-1.434-1.679-1.412-0.223-2.824-0.444-4.236-0.663-0.792-0.123-1.433 0.43-1.434 1.23v10.132c0 0.8 0.645 1.551 1.434 1.673zm-33.953 2.533v97.114c0 0.972 0.782 1.867 1.742 1.996 28.091 3.776 56.182 8.3 84.272 13.636 0.96 0.182 1.743-0.459 1.742-1.431v-97.114c0-0.972-0.78-1.913-1.742-2.095-28.091-5.336-56.182-9.86-84.272-13.636-0.959-0.13-1.741 0.557-1.742 1.53zm8.223 116.72v-10.132c0-0.801-0.644-1.541-1.434-1.65-1.412-0.194-2.824-0.387-4.236-0.577-0.792-0.107-1.434 0.458-1.434 1.259v10.132c-1e-3 0.801 0.642 1.537 1.434 1.644 1.412 0.19 2.824 0.383 4.236 0.577 0.791 0.11 1.434-0.452 1.434-1.253zm8.499 1.204c1e-3 0.8 0.644 1.544 1.434 1.659 1.412 0.205 2.824 0.411 4.236 0.62 0.791 0.116 1.434-0.438 1.434-1.239v-10.132c-1e-3 -0.801-0.642-1.547-1.434-1.664-1.412-0.208-2.824-0.415-4.236-0.62-0.793-0.115-1.434 0.444-1.434 1.245v10.131zm17.19 4.205c1.412 0.219 2.824 0.44 4.236 0.663 0.791 0.125 1.434-0.424 1.434-1.225v-10.132c0-0.801-0.643-1.554-1.434-1.679-1.412-0.223-2.824-0.444-4.236-0.663-0.791-0.123-1.435 0.43-1.434 1.23v10.132c1e-3 0.802 0.643 1.552 1.434 1.674zm51.303 9.077c0.79 0.15 1.434-0.379 1.434-1.179v-10.132c-1e-3 -0.801-0.643-1.574-1.434-1.724-1.412-0.267-2.824-0.533-4.236-0.796-0.789-0.147-1.433 0.384-1.434 1.185v10.132c1e-3 0.801 0.644 1.571 1.434 1.718 1.412 0.263 2.824 0.528 4.236 0.796zm-14.152-4.203v-10.132c1e-3 -0.8-0.642-1.568-1.434-1.709-1.412-0.252-2.824-0.503-4.236-0.751-0.791-0.139-1.435 0.4-1.434 1.2v10.132c0 0.8 0.644 1.564 1.434 1.703 1.412 0.248 2.824 0.499 4.236 0.751 0.791 0.143 1.434-0.393 1.434-1.194zm-15.763-12.813c-1e-3 -0.801-0.643-1.56-1.434-1.693-1.412-0.238-2.824-0.473-4.236-0.707-0.788-0.131-1.434 0.415-1.433 1.215v10.132c-1e-3 0.8 0.644 1.557 1.433 1.688 1.412 0.234 2.824 0.469 4.236 0.707 0.791 0.133 1.434-0.41 1.434-1.21v-10.132z"/>
		<path d="m2494.6 241.1c-34.134-9.235-68.266-17.146-102.4-23.846v-150c34.134 6.701 68.266 14.611 102.4 23.846v150zm-86.96-153.35v-10.132c3e-3 -0.801-0.643-1.585-1.435-1.748-1.412-0.291-2.824-0.58-4.236-0.867-0.789-0.161-1.434 0.361-1.434 1.161v10.132c0 0.8 0.644 1.582 1.434 1.742 1.412 0.287 2.823 0.576 4.236 0.867 0.791 0.163 1.436-0.354 1.435-1.155zm9.933 3.546c1.412 0.302 2.824 0.607 4.236 0.913 0.791 0.172 1.434-0.339 1.434-1.139v-10.132c0-0.801-0.644-1.592-1.434-1.764-1.412-0.306-2.824-0.611-4.236-0.913-0.791-0.17-1.435 0.345-1.434 1.145v10.132c1e-3 0.8 0.642 1.588 1.434 1.758zm62.822 15.304c1.412 0.367 2.824 0.736 4.236 1.107 0.792 0.208 1.433-0.273 1.433-1.074v-10.132c1e-3 -0.8-0.644-1.621-1.433-1.83-1.412-0.371-2.824-0.741-4.236-1.107-0.792-0.206-1.434 0.28-1.434 1.08v10.132c1e-3 0.801 0.643 1.618 1.434 1.824zm-9.915-4.13v-10.132c0-0.8-0.644-1.614-1.434-1.813-1.412-0.355-2.824-0.708-4.236-1.058-0.792-0.196-1.435 0.296-1.434 1.096v10.132c0 0.801 0.644 1.611 1.434 1.807 1.412 0.351 2.824 0.703 4.236 1.058 0.791 0.199 1.433-0.29 1.434-1.09zm-17.198-15.747c-1.412-0.338-2.824-0.675-4.236-1.009-0.791-0.187-1.434 0.312-1.434 1.113v10.132c0 0.8 0.644 1.603 1.434 1.79 1.412 0.334 2.824 0.671 4.236 1.009 0.79 0.19 1.433-0.307 1.434-1.107v-10.132c0-0.801-0.642-1.607-1.434-1.796zm-19.954 8.218c1.412 0.318 2.824 0.638 4.236 0.961 0.79 0.181 1.435-0.323 1.434-1.123v-10.132c0-0.8-0.643-1.599-1.434-1.78-1.412-0.322-2.824-0.643-4.236-0.961-0.791-0.178-1.433 0.329-1.434 1.129v10.132c0 0.8 0.646 1.596 1.434 1.774zm-33.952 0.187v97.114c-1e-3 0.972 0.78 1.92 1.742 2.115 28.091 5.689 56.182 12.203 84.272 19.609 0.959 0.253 1.742-0.331 1.742-1.303v-97.114c1e-3 -0.972-0.781-1.97-1.742-2.223-28.091-7.405-56.182-13.92-84.272-19.609-0.96-0.195-1.742 0.439-1.742 1.411zm8.222 117.29v-10.132c0-0.8-0.643-1.585-1.434-1.748-1.412-0.291-2.824-0.58-4.236-0.867-0.791-0.161-1.434 0.361-1.434 1.161v10.132c0 0.801 0.643 1.582 1.434 1.742 1.412 0.287 2.824 0.576 4.236 0.867 0.792 0.164 1.435-0.354 1.434-1.155zm8.499 1.788c0 0.8 0.642 1.589 1.434 1.758 1.412 0.302 2.824 0.607 4.236 0.913 0.79 0.171 1.432-0.339 1.433-1.14v-10.132c0-0.8-0.644-1.592-1.433-1.763-1.412-0.307-2.824-0.611-4.236-0.913-0.79-0.169-1.435 0.345-1.434 1.145v10.132zm17.19 5.403c1.412 0.318 2.824 0.639 4.236 0.961 0.792 0.181 1.434-0.323 1.434-1.123v-10.132c0-0.801-0.643-1.599-1.434-1.78-1.412-0.322-2.824-0.643-4.236-0.961-0.792-0.178-1.435 0.329-1.434 1.129v10.132c0 0.801 0.644 1.596 1.434 1.774zm51.303 12.765c0.791 0.208 1.434-0.273 1.434-1.074v-10.132c0-0.801-0.644-1.622-1.434-1.829-1.412-0.371-2.824-0.74-4.236-1.107-0.79-0.206-1.434 0.279-1.434 1.08v10.132c0 0.8 0.644 1.618 1.434 1.823 1.412 0.367 2.824 0.736 4.236 1.107zm-14.152-5.237v-10.132c0-0.801-0.644-1.615-1.434-1.813-1.411-0.355-2.824-0.708-4.236-1.058-0.79-0.196-1.433 0.296-1.434 1.097v10.132c0 0.801 0.643 1.611 1.434 1.807 1.412 0.35 2.824 0.703 4.236 1.058 0.791 0.198 1.434-0.29 1.434-1.091zm-15.763-13.951c0-0.8-0.642-1.607-1.434-1.796-1.412-0.339-2.823-0.675-4.236-1.009-0.789-0.187-1.434 0.313-1.434 1.113v10.132c-1e-3 0.8 0.644 1.603 1.434 1.79 1.412 0.334 2.824 0.671 4.236 1.009 0.792 0.189 1.434-0.306 1.434-1.107v-10.132z"/>
		<path d="m2597 272.9c-34.134-12-68.266-22.56-102.4-31.795v-150c34.134 9.235 68.266 19.795 102.4 31.795v150zm-86.96-160.15v-10.132c0-0.8-0.644-1.633-1.434-1.856-1.412-0.397-2.824-0.792-4.236-1.185-0.792-0.22-1.435 0.254-1.434 1.054v10.132c0 0.801 0.641 1.63 1.434 1.849 1.412 0.393 2.824 0.787 4.236 1.185 0.789 0.223 1.435-0.247 1.434-1.047zm9.933 4.297c1.412 0.41 2.824 0.821 4.236 1.235 0.792 0.232 1.435-0.23 1.434-1.03v-10.132c0-0.801-0.642-1.641-1.434-1.873-1.412-0.414-2.824-0.826-4.236-1.235-0.79-0.229-1.436 0.236-1.434 1.036v10.132c1e-3 0.801 0.644 1.638 1.434 1.867zm62.822 20.204c1.412 0.48 2.824 0.962 4.236 1.447 0.792 0.271 1.433-0.157 1.434-0.958v-10.132c0-0.8-0.643-1.673-1.434-1.945-1.412-0.485-2.824-0.967-4.236-1.447-0.79-0.269-1.433 0.165-1.434 0.965v10.132c0 0.8 0.643 1.67 1.434 1.938zm-9.915-4.92v-10.132c1e-3 -0.801-0.642-1.665-1.434-1.927-1.412-0.467-2.824-0.932-4.236-1.394-0.792-0.259-1.434 0.183-1.434 0.983v10.132c1e-3 0.801 0.642 1.661 1.434 1.92 1.412 0.462 2.824 0.927 4.236 1.394 0.789 0.262 1.434-0.176 1.434-0.976zm-17.198-17.104c-1.412-0.449-2.824-0.896-4.236-1.34-0.791-0.249-1.434 0.201-1.433 1.001v10.132c0 0.8 0.642 1.654 1.433 1.902 1.412 0.444 2.824 0.891 4.236 1.34 0.79 0.252 1.434-0.194 1.434-0.995v-10.132c0-0.799-0.643-1.656-1.434-1.908zm-19.954 6.67c1.412 0.427 2.824 0.856 4.236 1.287 0.79 0.242 1.433-0.212 1.434-1.012v-10.132c0-0.8-0.642-1.649-1.434-1.891-1.412-0.431-2.824-0.861-4.236-1.287-0.791-0.239-1.434 0.218-1.434 1.019v10.132c0 0.8 0.643 1.645 1.434 1.884zm-33.952-2.389v97.114c0 0.972 0.78 1.979 1.742 2.245 28.091 7.791 56.182 16.486 84.272 26.149 0.96 0.331 1.742-0.191 1.742-1.163v-97.114c1e-3 -0.973-0.781-2.033-1.742-2.364-28.091-9.663-56.182-18.358-84.272-26.149-0.962-0.265-1.74 0.311-1.742 1.282zm8.222 117.9v-10.132c0-0.8-0.644-1.634-1.434-1.856-1.412-0.397-2.824-0.792-4.236-1.184-0.791-0.219-1.434 0.254-1.434 1.054v10.132c-1e-3 0.801 0.643 1.629 1.434 1.849 1.412 0.392 2.824 0.787 4.236 1.184 0.792 0.223 1.433-0.247 1.434-1.047zm8.499 2.43c0 0.801 0.642 1.637 1.434 1.867 1.412 0.409 2.824 0.821 4.236 1.235 0.789 0.232 1.433-0.23 1.434-1.03v-10.132c0-0.801-0.644-1.641-1.434-1.873-1.412-0.414-2.824-0.826-4.236-1.235-0.791-0.229-1.433 0.236-1.434 1.037v10.131zm17.19 6.716c1.412 0.427 2.824 0.856 4.236 1.287 0.793 0.241 1.435-0.212 1.434-1.012v-10.132c0-0.8-0.643-1.649-1.434-1.891-1.412-0.432-2.824-0.861-4.236-1.287-0.791-0.239-1.435 0.218-1.434 1.019v10.132c1e-3 0.8 0.642 1.645 1.434 1.884zm51.303 16.8c0.792 0.271 1.434-0.157 1.434-0.958v-10.132c-1e-3 -0.8-0.642-1.674-1.434-1.945-1.412-0.485-2.824-0.967-4.236-1.447-0.789-0.269-1.434 0.164-1.434 0.965v10.132c-2e-3 0.8 0.642 1.669 1.434 1.938 1.412 0.48 2.824 0.962 4.236 1.447zm-14.152-6.368v-10.132c0-0.8-0.643-1.665-1.434-1.927-1.412-0.467-2.824-0.931-4.236-1.394-0.791-0.259-1.435 0.183-1.434 0.983v10.132c1e-3 0.801 0.642 1.661 1.434 1.92 1.412 0.462 2.824 0.927 4.236 1.394 0.791 0.262 1.434-0.175 1.434-0.976zm-15.763-15.194c2e-3 -0.8-0.643-1.657-1.434-1.908-1.412-0.449-2.824-0.896-4.236-1.34-0.79-0.248-1.436 0.201-1.434 1.001v10.132c0 0.8 0.644 1.653 1.434 1.902 1.412 0.444 2.824 0.891 4.236 1.34 0.793 0.251 1.434-0.194 1.434-0.995v-10.132z"/>
</svg>
